<svg width="32" height="32" viewBox="0 0 32 32" fill="none" xmlns="http://www.w3.org/2000/svg">
<path d="M9 26L3.5 14.5V14L9 11.5L16 10.5V24.5L9 26Z" fill="#5946D7" fill-opacity="0.1"/>
<path d="M10 17.3334L16 29.3334" stroke="#2E1066" stroke-width="2" stroke-linecap="round" stroke-linejoin="round"/>
<path d="M10 17.3334L16 29.3334" stroke="#410F9E" stroke-width="2" stroke-linecap="round" stroke-linejoin="round"/>
<path d="M10 17.3334L16 29.3334" stroke="#453888" stroke-width="2" stroke-linecap="round" stroke-linejoin="round"/>
<path d="M10 17.3334L16 29.3334" stroke="#5946D7" stroke-width="2" stroke-linecap="round" stroke-linejoin="round"/>
<path fill-rule="evenodd" clip-rule="evenodd" d="M28.3852 15.2973L23.2999 25.4666C22.9839 26.1 22.2239 26.3826 21.5812 26.088C19.7706 25.2573 17.8172 24.8546 15.8639 24.8533C13.9106 24.8546 11.9572 25.2573 10.1466 26.088C9.50258 26.3826 8.74258 26.1 8.42658 25.4666L3.34258 15.2973C3.01991 14.6533 3.25991 13.8493 3.89991 13.5213C7.64658 11.6 11.7532 10.668 15.8626 10.6666C19.9719 10.668 24.0786 11.6 27.8266 13.5213C28.4679 13.8506 28.7066 14.6533 28.3852 15.2973Z" stroke="#2E1066" stroke-width="2" stroke-linecap="round" stroke-linejoin="round"/>
<path fill-rule="evenodd" clip-rule="evenodd" d="M28.3852 15.2973L23.2999 25.4666C22.9839 26.1 22.2239 26.3826 21.5812 26.088C19.7706 25.2573 17.8172 24.8546 15.8639 24.8533C13.9106 24.8546 11.9572 25.2573 10.1466 26.088C9.50258 26.3826 8.74258 26.1 8.42658 25.4666L3.34258 15.2973C3.01991 14.6533 3.25991 13.8493 3.89991 13.5213C7.64658 11.6 11.7532 10.668 15.8626 10.6666C19.9719 10.668 24.0786 11.6 27.8266 13.5213C28.4679 13.8506 28.7066 14.6533 28.3852 15.2973Z" stroke="#410F9E" stroke-width="2" stroke-linecap="round" stroke-linejoin="round"/>
<path fill-rule="evenodd" clip-rule="evenodd" d="M28.3852 15.2973L23.2999 25.4666C22.9839 26.1 22.2239 26.3826 21.5812 26.088C19.7706 25.2573 17.8172 24.8546 15.8639 24.8533C13.9106 24.8546 11.9572 25.2573 10.1466 26.088C9.50258 26.3826 8.74258 26.1 8.42658 25.4666L3.34258 15.2973C3.01991 14.6533 3.25991 13.8493 3.89991 13.5213C7.64658 11.6 11.7532 10.668 15.8626 10.6666C19.9719 10.668 24.0786 11.6 27.8266 13.5213C28.4679 13.8506 28.7066 14.6533 28.3852 15.2973Z" stroke="#453888" stroke-width="2" stroke-linecap="round" stroke-linejoin="round"/>
<path fill-rule="evenodd" clip-rule="evenodd" d="M28.3852 15.2973L23.2999 25.4666C22.9839 26.1 22.2239 26.3826 21.5812 26.088C19.7706 25.2573 17.8172 24.8546 15.8639 24.8533C13.9106 24.8546 11.9572 25.2573 10.1466 26.088C9.50258 26.3826 8.74258 26.1 8.42658 25.4666L3.34258 15.2973C3.01991 14.6533 3.25991 13.8493 3.89991 13.5213C7.64658 11.6 11.7532 10.668 15.8626 10.6666C19.9719 10.668 24.0786 11.6 27.8266 13.5213C28.4679 13.8506 28.7066 14.6533 28.3852 15.2973Z" stroke="#5946D7" stroke-width="2" stroke-linecap="round" stroke-linejoin="round"/>
<path d="M15.9999 6.66658C15.9999 6.44525 15.9799 6.22258 15.9399 6.00391" stroke="#2E1066" stroke-width="2" stroke-linecap="round" stroke-linejoin="round"/>
<path d="M15.9999 6.66658C15.9999 6.44525 15.9799 6.22258 15.9399 6.00391" stroke="#410F9E" stroke-width="2" stroke-linecap="round" stroke-linejoin="round"/>
<path d="M15.9999 6.66658C15.9999 6.44525 15.9799 6.22258 15.9399 6.00391" stroke="#453888" stroke-width="2" stroke-linecap="round" stroke-linejoin="round"/>
<path d="M15.9999 6.66658C15.9999 6.44525 15.9799 6.22258 15.9399 6.00391" stroke="#5946D7" stroke-width="2" stroke-linecap="round" stroke-linejoin="round"/>
<path d="M16.0599 6.00391C16.0199 6.22258 15.9999 6.44525 15.9999 6.66658" stroke="#2E1066" stroke-width="2" stroke-linecap="round" stroke-linejoin="round"/>
<path d="M16.0599 6.00391C16.0199 6.22258 15.9999 6.44525 15.9999 6.66658" stroke="#410F9E" stroke-width="2" stroke-linecap="round" stroke-linejoin="round"/>
<path d="M16.0599 6.00391C16.0199 6.22258 15.9999 6.44525 15.9999 6.66658" stroke="#453888" stroke-width="2" stroke-linecap="round" stroke-linejoin="round"/>
<path d="M16.0599 6.00391C16.0199 6.22258 15.9999 6.44525 15.9999 6.66658" stroke="#5946D7" stroke-width="2" stroke-linecap="round" stroke-linejoin="round"/>
<path d="M23.4494 3.83867C23.284 3.68667 23.108 3.54934 22.924 3.42801" stroke="#2E1066" stroke-width="2" stroke-linecap="round" stroke-linejoin="round"/>
<path d="M23.4494 3.83867C23.284 3.68667 23.108 3.54934 22.924 3.42801" stroke="#410F9E" stroke-width="2" stroke-linecap="round" stroke-linejoin="round"/>
<path d="M23.4494 3.83867C23.284 3.68667 23.108 3.54934 22.924 3.42801" stroke="#453888" stroke-width="2" stroke-linecap="round" stroke-linejoin="round"/>
<path d="M23.4494 3.83867C23.284 3.68667 23.108 3.54934 22.924 3.42801" stroke="#5946D7" stroke-width="2" stroke-linecap="round" stroke-linejoin="round"/>
<path d="M19.1746 2.81732C18.9319 2.87998 18.6999 2.97065 18.4732 3.07998" stroke="#2E1066" stroke-width="2" stroke-linecap="round" stroke-linejoin="round"/>
<path d="M19.1746 2.81732C18.9319 2.87998 18.6999 2.97065 18.4732 3.07998" stroke="#410F9E" stroke-width="2" stroke-linecap="round" stroke-linejoin="round"/>
<path d="M19.1746 2.81732C18.9319 2.87998 18.6999 2.97065 18.4732 3.07998" stroke="#453888" stroke-width="2" stroke-linecap="round" stroke-linejoin="round"/>
<path d="M19.1746 2.81732C18.9319 2.87998 18.6999 2.97065 18.4732 3.07998" stroke="#5946D7" stroke-width="2" stroke-linecap="round" stroke-linejoin="round"/>
<path d="M9.07582 3.42801C8.89182 3.54934 8.71582 3.68667 8.55048 3.83867" stroke="#2E1066" stroke-width="2" stroke-linecap="round" stroke-linejoin="round"/>
<path d="M9.07582 3.42801C8.89182 3.54934 8.71582 3.68667 8.55048 3.83867" stroke="#410F9E" stroke-width="2" stroke-linecap="round" stroke-linejoin="round"/>
<path d="M9.07582 3.42801C8.89182 3.54934 8.71582 3.68667 8.55048 3.83867" stroke="#453888" stroke-width="2" stroke-linecap="round" stroke-linejoin="round"/>
<path d="M9.07582 3.42801C8.89182 3.54934 8.71582 3.68667 8.55048 3.83867" stroke="#5946D7" stroke-width="2" stroke-linecap="round" stroke-linejoin="round"/>
<path d="M12.8253 2.81732C13.0679 2.87998 13.2999 2.97065 13.5266 3.07998" stroke="#2E1066" stroke-width="2" stroke-linecap="round" stroke-linejoin="round"/>
<path d="M12.8253 2.81732C13.0679 2.87998 13.2999 2.97065 13.5266 3.07998" stroke="#410F9E" stroke-width="2" stroke-linecap="round" stroke-linejoin="round"/>
<path d="M12.8253 2.81732C13.0679 2.87998 13.2999 2.97065 13.5266 3.07998" stroke="#453888" stroke-width="2" stroke-linecap="round" stroke-linejoin="round"/>
<path d="M12.8253 2.81732C13.0679 2.87998 13.2999 2.97065 13.5266 3.07998" stroke="#5946D7" stroke-width="2" stroke-linecap="round" stroke-linejoin="round"/>
<path d="M15.9997 17.3333V16" stroke="#2E1066" stroke-width="2" stroke-linecap="round" stroke-linejoin="round"/>
<path d="M15.9997 17.3333V16" stroke="#410F9E" stroke-width="2" stroke-linecap="round" stroke-linejoin="round"/>
<path d="M15.9997 17.3333V16" stroke="#453888" stroke-width="2" stroke-linecap="round" stroke-linejoin="round"/>
<path d="M15.9997 17.3333V16" stroke="#5946D7" stroke-width="2" stroke-linecap="round" stroke-linejoin="round"/>
<path d="M15.9997 10.6666V12" stroke="#2E1066" stroke-width="2" stroke-linecap="round" stroke-linejoin="round"/>
<path d="M15.9997 10.6666V12" stroke="#410F9E" stroke-width="2" stroke-linecap="round" stroke-linejoin="round"/>
<path d="M15.9997 10.6666V12" stroke="#453888" stroke-width="2" stroke-linecap="round" stroke-linejoin="round"/>
<path d="M15.9997 10.6666V12" stroke="#5946D7" stroke-width="2" stroke-linecap="round" stroke-linejoin="round"/>
</svg>
