<svg width="32" height="32" viewBox="0 0 32 32" fill="none" xmlns="http://www.w3.org/2000/svg">
<path d="M22.6692 15.6759H9.39697" stroke="#2E1066" stroke-width="2" stroke-linecap="round" stroke-linejoin="round"/>
<path d="M22.6692 15.6759H9.39697" stroke="#410F9E" stroke-width="2" stroke-linecap="round" stroke-linejoin="round"/>
<path d="M22.6692 15.6759H9.39697" stroke="#453888" stroke-width="2" stroke-linecap="round" stroke-linejoin="round"/>
<path d="M22.6692 15.6759H9.39697" stroke="#5946D7" stroke-width="2" stroke-linecap="round" stroke-linejoin="round"/>
<path d="M18.334 18.5797H19.0009" stroke="#2E1066" stroke-width="2" stroke-linecap="round" stroke-linejoin="round"/>
<path d="M18.334 18.5797H19.0009" stroke="#410F9E" stroke-width="2" stroke-linecap="round" stroke-linejoin="round"/>
<path d="M18.334 18.5797H19.0009" stroke="#453888" stroke-width="2" stroke-linecap="round" stroke-linejoin="round"/>
<path d="M18.334 18.5797H19.0009" stroke="#5946D7" stroke-width="2" stroke-linecap="round" stroke-linejoin="round"/>
<path fill-rule="evenodd" clip-rule="evenodd" d="M9.33057 16.4094V20.4271C9.33057 21.6536 10.3237 22.6485 11.5502 22.6507L20.4472 22.6693C21.0369 22.669 21.6024 22.4344 22.0191 22.0171C22.4359 21.5999 22.6698 21.0341 22.6695 20.4444V11.5554C22.6702 10.3289 21.6777 9.33339 20.4512 9.33044H14.7888C14.1095 9.33044 13.4674 9.64103 13.0454 10.1735L10.295 13.6509C9.67224 14.4357 9.33245 15.4076 9.33057 16.4094Z" fill="#5946D7" fill-opacity="0.1"/>
<path fill-rule="evenodd" clip-rule="evenodd" d="M9.33057 16.4094V20.4271C9.33057 21.6536 10.3237 22.6485 11.5502 22.6507L20.4472 22.6693C21.0369 22.669 21.6024 22.4344 22.0191 22.0171C22.4359 21.5999 22.6698 21.0341 22.6695 20.4444V11.5554C22.6702 10.3289 21.6777 9.33339 20.4512 9.33044H14.7888C14.1095 9.33044 13.4674 9.64103 13.0454 10.1735L10.295 13.6509C9.67224 14.4357 9.33245 15.4076 9.33057 16.4094Z" stroke="#2E1066" stroke-width="2" stroke-linecap="round" stroke-linejoin="round"/>
<path fill-rule="evenodd" clip-rule="evenodd" d="M9.33057 16.4094V20.4271C9.33057 21.6536 10.3237 22.6485 11.5502 22.6507L20.4472 22.6693C21.0369 22.669 21.6024 22.4344 22.0191 22.0171C22.4359 21.5999 22.6698 21.0341 22.6695 20.4444V11.5554C22.6702 10.3289 21.6777 9.33339 20.4512 9.33044H14.7888C14.1095 9.33044 13.4674 9.64103 13.0454 10.1735L10.295 13.6509C9.67224 14.4357 9.33245 15.4076 9.33057 16.4094Z" stroke="#410F9E" stroke-width="2" stroke-linecap="round" stroke-linejoin="round"/>
<path fill-rule="evenodd" clip-rule="evenodd" d="M9.33057 16.4094V20.4271C9.33057 21.6536 10.3237 22.6485 11.5502 22.6507L20.4472 22.6693C21.0369 22.669 21.6024 22.4344 22.0191 22.0171C22.4359 21.5999 22.6698 21.0341 22.6695 20.4444V11.5554C22.6702 10.3289 21.6777 9.33339 20.4512 9.33044H14.7888C14.1095 9.33044 13.4674 9.64103 13.0454 10.1735L10.295 13.6509C9.67224 14.4357 9.33245 15.4076 9.33057 16.4094Z" stroke="#453888" stroke-width="2" stroke-linecap="round" stroke-linejoin="round"/>
<path fill-rule="evenodd" clip-rule="evenodd" d="M9.33057 16.4094V20.4271C9.33057 21.6536 10.3237 22.6485 11.5502 22.6507L20.4472 22.6693C21.0369 22.669 21.6024 22.4344 22.0191 22.0171C22.4359 21.5999 22.6698 21.0341 22.6695 20.4444V11.5554C22.6702 10.3289 21.6777 9.33339 20.4512 9.33044H14.7888C14.1095 9.33044 13.4674 9.64103 13.0454 10.1735L10.295 13.6509C9.67224 14.4357 9.33245 15.4076 9.33057 16.4094Z" stroke="#5946D7" stroke-width="2" stroke-linecap="round" stroke-linejoin="round"/>
<rect x="3.99463" y="3.995" width="24.01" height="24.01" rx="5" stroke="#2E1066" stroke-width="2" stroke-linecap="round" stroke-linejoin="round"/>
<rect x="3.99463" y="3.995" width="24.01" height="24.01" rx="5" stroke="#410F9E" stroke-width="2" stroke-linecap="round" stroke-linejoin="round"/>
<rect x="3.99463" y="3.995" width="24.01" height="24.01" rx="5" stroke="#453888" stroke-width="2" stroke-linecap="round" stroke-linejoin="round"/>
<rect x="3.99463" y="3.995" width="24.01" height="24.01" rx="5" stroke="#5946D7" stroke-width="2" stroke-linecap="round" stroke-linejoin="round"/>
</svg>
