<svg width="32" height="32" viewBox="0 0 32 32" fill="none" xmlns="http://www.w3.org/2000/svg">
<path fill-rule="evenodd" clip-rule="evenodd" d="M18.7318 21.4355V21.4355C17.8855 21.5767 17.02 21.3384 16.3653 20.7839C15.7106 20.2294 15.333 19.4149 15.333 18.557V13.4429C15.333 12.5849 15.7106 11.7705 16.3653 11.216C17.02 10.6615 17.8855 10.4232 18.7318 10.5643V10.5643C21.3889 11.0071 23.3365 13.3061 23.3363 15.9999V15.9999C23.3365 18.6937 21.3889 20.9928 18.7318 21.4355V21.4355Z" fill="#5946D7" fill-opacity="0.1"/>
<path fill-rule="evenodd" clip-rule="evenodd" d="M18.7318 21.4355V21.4355C17.8855 21.5767 17.02 21.3384 16.3653 20.7839C15.7106 20.2294 15.333 19.4149 15.333 18.557V13.4429C15.333 12.5849 15.7106 11.7705 16.3653 11.216C17.02 10.6615 17.8855 10.4232 18.7318 10.5643V10.5643C21.3889 11.0071 23.3365 13.3061 23.3363 15.9999V15.9999C23.3365 18.6937 21.3889 20.9928 18.7318 21.4355V21.4355Z" stroke="#2E1066" stroke-width="2" stroke-linecap="round" stroke-linejoin="round"/>
<path fill-rule="evenodd" clip-rule="evenodd" d="M18.7318 21.4355V21.4355C17.8855 21.5767 17.02 21.3384 16.3653 20.7839C15.7106 20.2294 15.333 19.4149 15.333 18.557V13.4429C15.333 12.5849 15.7106 11.7705 16.3653 11.216C17.02 10.6615 17.8855 10.4232 18.7318 10.5643V10.5643C21.3889 11.0071 23.3365 13.3061 23.3363 15.9999V15.9999C23.3365 18.6937 21.3889 20.9928 18.7318 21.4355V21.4355Z" stroke="#410F9E" stroke-width="2" stroke-linecap="round" stroke-linejoin="round"/>
<path fill-rule="evenodd" clip-rule="evenodd" d="M18.7318 21.4355V21.4355C17.8855 21.5767 17.02 21.3384 16.3653 20.7839C15.7106 20.2294 15.333 19.4149 15.333 18.557V13.4429C15.333 12.5849 15.7106 11.7705 16.3653 11.216C17.02 10.6615 17.8855 10.4232 18.7318 10.5643V10.5643C21.3889 11.0071 23.3365 13.3061 23.3363 15.9999V15.9999C23.3365 18.6937 21.3889 20.9928 18.7318 21.4355V21.4355Z" stroke="#453888" stroke-width="2" stroke-linecap="round" stroke-linejoin="round"/>
<path fill-rule="evenodd" clip-rule="evenodd" d="M18.7318 21.4355V21.4355C17.8855 21.5767 17.02 21.3384 16.3653 20.7839C15.7106 20.2294 15.333 19.4149 15.333 18.557V13.4429C15.333 12.5849 15.7106 11.7705 16.3653 11.216C17.02 10.6615 17.8855 10.4232 18.7318 10.5643V10.5643C21.3889 11.0071 23.3365 13.3061 23.3363 15.9999V15.9999C23.3365 18.6937 21.3889 20.9928 18.7318 21.4355V21.4355Z" stroke="#5946D7" stroke-width="2" stroke-linecap="round" stroke-linejoin="round"/>
<path d="M9.33057 13.3321L11.9983 12.6651" stroke="#2E1066" stroke-width="2" stroke-linecap="round" stroke-linejoin="round"/>
<path d="M9.33057 13.3321L11.9983 12.6651" stroke="#410F9E" stroke-width="2" stroke-linecap="round" stroke-linejoin="round"/>
<path d="M9.33057 13.3321L11.9983 12.6651" stroke="#453888" stroke-width="2" stroke-linecap="round" stroke-linejoin="round"/>
<path d="M9.33057 13.3321L11.9983 12.6651" stroke="#5946D7" stroke-width="2" stroke-linecap="round" stroke-linejoin="round"/>
<path d="M9.33057 16.6669L11.9983 16" stroke="#2E1066" stroke-width="2" stroke-linecap="round" stroke-linejoin="round"/>
<path d="M9.33057 16.6669L11.9983 16" stroke="#410F9E" stroke-width="2" stroke-linecap="round" stroke-linejoin="round"/>
<path d="M9.33057 16.6669L11.9983 16" stroke="#453888" stroke-width="2" stroke-linecap="round" stroke-linejoin="round"/>
<path d="M9.33057 16.6669L11.9983 16" stroke="#5946D7" stroke-width="2" stroke-linecap="round" stroke-linejoin="round"/>
<path fill-rule="evenodd" clip-rule="evenodd" d="M15.9996 28.005V28.005C9.36945 28.005 3.99463 22.6302 3.99463 16V16C3.99463 9.36982 9.36945 3.995 15.9996 3.995V3.995C22.6298 3.995 28.0046 9.36982 28.0046 16V16C28.0046 22.6302 22.6298 28.005 15.9996 28.005V28.005Z" stroke="#2E1066" stroke-width="2" stroke-linecap="round" stroke-linejoin="round"/>
<path fill-rule="evenodd" clip-rule="evenodd" d="M15.9996 28.005V28.005C9.36945 28.005 3.99463 22.6302 3.99463 16V16C3.99463 9.36982 9.36945 3.995 15.9996 3.995V3.995C22.6298 3.995 28.0046 9.36982 28.0046 16V16C28.0046 22.6302 22.6298 28.005 15.9996 28.005V28.005Z" stroke="#410F9E" stroke-width="2" stroke-linecap="round" stroke-linejoin="round"/>
<path fill-rule="evenodd" clip-rule="evenodd" d="M15.9996 28.005V28.005C9.36945 28.005 3.99463 22.6302 3.99463 16V16C3.99463 9.36982 9.36945 3.995 15.9996 3.995V3.995C22.6298 3.995 28.0046 9.36982 28.0046 16V16C28.0046 22.6302 22.6298 28.005 15.9996 28.005V28.005Z" stroke="#453888" stroke-width="2" stroke-linecap="round" stroke-linejoin="round"/>
<path fill-rule="evenodd" clip-rule="evenodd" d="M15.9996 28.005V28.005C9.36945 28.005 3.99463 22.6302 3.99463 16V16C3.99463 9.36982 9.36945 3.995 15.9996 3.995V3.995C22.6298 3.995 28.0046 9.36982 28.0046 16V16C28.0046 22.6302 22.6298 28.005 15.9996 28.005V28.005Z" stroke="#5946D7" stroke-width="2" stroke-linecap="round" stroke-linejoin="round"/>
<path d="M9.33057 20.0016L11.9983 19.3347" stroke="#2E1066" stroke-width="2" stroke-linecap="round" stroke-linejoin="round"/>
<path d="M9.33057 20.0016L11.9983 19.3347" stroke="#410F9E" stroke-width="2" stroke-linecap="round" stroke-linejoin="round"/>
<path d="M9.33057 20.0016L11.9983 19.3347" stroke="#453888" stroke-width="2" stroke-linecap="round" stroke-linejoin="round"/>
<path d="M9.33057 20.0016L11.9983 19.3347" stroke="#5946D7" stroke-width="2" stroke-linecap="round" stroke-linejoin="round"/>
</svg>
