<svg width="32" height="32" viewBox="0 0 32 32" fill="none" xmlns="http://www.w3.org/2000/svg">
<path d="M5.15698 16.472L7.04231 14.5867C8.08364 13.5453 9.77164 13.5453 10.813 14.5867L17.413 21.1867C18.4543 22.228 18.4543 23.916 17.413 24.9573L15.5276 26.8427C14.4863 27.884 12.7983 27.884 11.757 26.8427L5.15698 20.2427C4.11564 19.2013 4.11564 17.5133 5.15698 16.472Z" fill="#5946D7" fill-opacity="0.1"/>
<path d="M5.15698 16.472L7.04231 14.5867C8.08364 13.5453 9.77164 13.5453 10.813 14.5867L17.413 21.1867C18.4543 22.228 18.4543 23.916 17.413 24.9573L15.5276 26.8427C14.4863 27.884 12.7983 27.884 11.757 26.8427L5.15698 20.2427C4.11564 19.2013 4.11564 17.5133 5.15698 16.472Z" stroke="#2E1066" stroke-width="2" stroke-linecap="round" stroke-linejoin="round"/>
<path d="M5.15698 16.472L7.04231 14.5867C8.08364 13.5453 9.77164 13.5453 10.813 14.5867L17.413 21.1867C18.4543 22.228 18.4543 23.916 17.413 24.9573L15.5276 26.8427C14.4863 27.884 12.7983 27.884 11.757 26.8427L5.15698 20.2427C4.11564 19.2013 4.11564 17.5133 5.15698 16.472Z" stroke="#410F9E" stroke-width="2" stroke-linecap="round" stroke-linejoin="round"/>
<path d="M5.15698 16.472L7.04231 14.5867C8.08364 13.5453 9.77164 13.5453 10.813 14.5867L17.413 21.1867C18.4543 22.228 18.4543 23.916 17.413 24.9573L15.5276 26.8427C14.4863 27.884 12.7983 27.884 11.757 26.8427L5.15698 20.2427C4.11564 19.2013 4.11564 17.5133 5.15698 16.472Z" stroke="#453888" stroke-width="2" stroke-linecap="round" stroke-linejoin="round"/>
<path d="M5.15698 16.472L7.04231 14.5867C8.08364 13.5453 9.77164 13.5453 10.813 14.5867L17.413 21.1867C18.4543 22.228 18.4543 23.916 17.413 24.9573L15.5276 26.8427C14.4863 27.884 12.7983 27.884 11.757 26.8427L5.15698 20.2427C4.11564 19.2013 4.11564 17.5133 5.15698 16.472Z" stroke="#5946D7" stroke-width="2" stroke-linecap="round" stroke-linejoin="round"/>
<path d="M6.09327 21.1866L3.2666 24.0133" stroke="#2E1066" stroke-width="2" stroke-linecap="round" stroke-linejoin="round"/>
<path d="M6.09327 21.1866L3.2666 24.0133" stroke="#410F9E" stroke-width="2" stroke-linecap="round" stroke-linejoin="round"/>
<path d="M6.09327 21.1866L3.2666 24.0133" stroke="#453888" stroke-width="2" stroke-linecap="round" stroke-linejoin="round"/>
<path d="M6.09327 21.1866L3.2666 24.0133" stroke="#5946D7" stroke-width="2" stroke-linecap="round" stroke-linejoin="round"/>
<path d="M8.34668 29.08L11.1733 26.2533" stroke="#2E1066" stroke-width="2" stroke-linecap="round" stroke-linejoin="round"/>
<path d="M8.34668 29.08L11.1733 26.2533" stroke="#410F9E" stroke-width="2" stroke-linecap="round" stroke-linejoin="round"/>
<path d="M8.34668 29.08L11.1733 26.2533" stroke="#453888" stroke-width="2" stroke-linecap="round" stroke-linejoin="round"/>
<path d="M8.34668 29.08L11.1733 26.2533" stroke="#5946D7" stroke-width="2" stroke-linecap="round" stroke-linejoin="round"/>
<path fill-rule="evenodd" clip-rule="evenodd" d="M22.1276 5.15731L20.2423 3.27198C19.721 2.75065 18.877 2.75065 18.357 3.27198L16.8623 4.76665C16.6116 5.01731 16.4716 5.35598 16.4716 5.70931V8.92798L14.5863 10.8133C14.065 11.3346 14.065 12.1786 14.5863 12.6986L19.301 17.4133C19.8223 17.9346 20.6663 17.9346 21.1863 17.4133L23.0716 15.528H26.2903C26.6436 15.528 26.9836 15.388 27.233 15.1373L28.7276 13.6426C29.249 13.1213 29.249 12.2773 28.7276 11.7573L26.8423 9.87198" fill="#5946D7" fill-opacity="0.1"/>
<path d="M22.1276 5.15731L20.2423 3.27198C19.721 2.75065 18.877 2.75065 18.357 3.27198L16.8623 4.76665C16.6116 5.01731 16.4716 5.35598 16.4716 5.70931V8.92798L14.5863 10.8133C14.065 11.3346 14.065 12.1786 14.5863 12.6986L19.301 17.4133C19.8223 17.9346 20.6663 17.9346 21.1863 17.4133L23.0716 15.528H26.2903C26.6436 15.528 26.9836 15.388 27.233 15.1373L28.7276 13.6426C29.249 13.1213 29.249 12.2773 28.7276 11.7573L26.8423 9.87198" stroke="#2E1066" stroke-width="2" stroke-linecap="round" stroke-linejoin="round"/>
<path d="M22.1276 5.15731L20.2423 3.27198C19.721 2.75065 18.877 2.75065 18.357 3.27198L16.8623 4.76665C16.6116 5.01731 16.4716 5.35598 16.4716 5.70931V8.92798L14.5863 10.8133C14.065 11.3346 14.065 12.1786 14.5863 12.6986L19.301 17.4133C19.8223 17.9346 20.6663 17.9346 21.1863 17.4133L23.0716 15.528H26.2903C26.6436 15.528 26.9836 15.388 27.233 15.1373L28.7276 13.6426C29.249 13.1213 29.249 12.2773 28.7276 11.7573L26.8423 9.87198" stroke="#410F9E" stroke-width="2" stroke-linecap="round" stroke-linejoin="round"/>
<path d="M22.1276 5.15731L20.2423 3.27198C19.721 2.75065 18.877 2.75065 18.357 3.27198L16.8623 4.76665C16.6116 5.01731 16.4716 5.35598 16.4716 5.70931V8.92798L14.5863 10.8133C14.065 11.3346 14.065 12.1786 14.5863 12.6986L19.301 17.4133C19.8223 17.9346 20.6663 17.9346 21.1863 17.4133L23.0716 15.528H26.2903C26.6436 15.528 26.9836 15.388 27.233 15.1373L28.7276 13.6426C29.249 13.1213 29.249 12.2773 28.7276 11.7573L26.8423 9.87198" stroke="#453888" stroke-width="2" stroke-linecap="round" stroke-linejoin="round"/>
<path d="M22.1276 5.15731L20.2423 3.27198C19.721 2.75065 18.877 2.75065 18.357 3.27198L16.8623 4.76665C16.6116 5.01731 16.4716 5.35598 16.4716 5.70931V8.92798L14.5863 10.8133C14.065 11.3346 14.065 12.1786 14.5863 12.6986L19.301 17.4133C19.8223 17.9346 20.6663 17.9346 21.1863 17.4133L23.0716 15.528H26.2903C26.6436 15.528 26.9836 15.388 27.233 15.1373L28.7276 13.6426C29.249 13.1213 29.249 12.2773 28.7276 11.7573L26.8423 9.87198" stroke="#5946D7" stroke-width="2" stroke-linecap="round" stroke-linejoin="round"/>
<path d="M20.3333 13L19 11.6666" stroke="#2E1066" stroke-width="2" stroke-linecap="round" stroke-linejoin="round"/>
<path d="M20.3333 13L19 11.6666" stroke="#410F9E" stroke-width="2" stroke-linecap="round" stroke-linejoin="round"/>
<path d="M20.3333 13L19 11.6666" stroke="#453888" stroke-width="2" stroke-linecap="round" stroke-linejoin="round"/>
<path d="M20.3333 13L19 11.6666" stroke="#5946D7" stroke-width="2" stroke-linecap="round" stroke-linejoin="round"/>
<path d="M21.3332 29.3333V28" stroke="#2E1066" stroke-width="2" stroke-linecap="round" stroke-linejoin="round"/>
<path d="M21.3332 29.3333V28" stroke="#410F9E" stroke-width="2" stroke-linecap="round" stroke-linejoin="round"/>
<path d="M21.3332 29.3333V28" stroke="#453888" stroke-width="2" stroke-linecap="round" stroke-linejoin="round"/>
<path d="M21.3332 29.3333V28" stroke="#5946D7" stroke-width="2" stroke-linecap="round" stroke-linejoin="round"/>
<path d="M29.3333 21.3333H28" stroke="#2E1066" stroke-width="2" stroke-linecap="round" stroke-linejoin="round"/>
<path d="M29.3333 21.3333H28" stroke="#410F9E" stroke-width="2" stroke-linecap="round" stroke-linejoin="round"/>
<path d="M29.3333 21.3333H28" stroke="#453888" stroke-width="2" stroke-linecap="round" stroke-linejoin="round"/>
<path d="M29.3333 21.3333H28" stroke="#5946D7" stroke-width="2" stroke-linecap="round" stroke-linejoin="round"/>
<path d="M27.9998 28L26.6665 26.6666" stroke="#2E1066" stroke-width="2" stroke-linecap="round" stroke-linejoin="round"/>
<path d="M27.9998 28L26.6665 26.6666" stroke="#410F9E" stroke-width="2" stroke-linecap="round" stroke-linejoin="round"/>
<path d="M27.9998 28L26.6665 26.6666" stroke="#453888" stroke-width="2" stroke-linecap="round" stroke-linejoin="round"/>
<path d="M27.9998 28L26.6665 26.6666" stroke="#5946D7" stroke-width="2" stroke-linecap="round" stroke-linejoin="round"/>
<path d="M10.6667 2.66663V3.99996" stroke="#2E1066" stroke-width="2" stroke-linecap="round" stroke-linejoin="round"/>
<path d="M10.6667 2.66663V3.99996" stroke="#410F9E" stroke-width="2" stroke-linecap="round" stroke-linejoin="round"/>
<path d="M10.6667 2.66663V3.99996" stroke="#453888" stroke-width="2" stroke-linecap="round" stroke-linejoin="round"/>
<path d="M10.6667 2.66663V3.99996" stroke="#5946D7" stroke-width="2" stroke-linecap="round" stroke-linejoin="round"/>
<path d="M2.6665 10.6667H3.99984" stroke="#2E1066" stroke-width="2" stroke-linecap="round" stroke-linejoin="round"/>
<path d="M2.6665 10.6667H3.99984" stroke="#410F9E" stroke-width="2" stroke-linecap="round" stroke-linejoin="round"/>
<path d="M2.6665 10.6667H3.99984" stroke="#453888" stroke-width="2" stroke-linecap="round" stroke-linejoin="round"/>
<path d="M2.6665 10.6667H3.99984" stroke="#5946D7" stroke-width="2" stroke-linecap="round" stroke-linejoin="round"/>
<path d="M4 4L5.33333 5.33333" stroke="#2E1066" stroke-width="2" stroke-linecap="round" stroke-linejoin="round"/>
<path d="M4 4L5.33333 5.33333" stroke="#410F9E" stroke-width="2" stroke-linecap="round" stroke-linejoin="round"/>
<path d="M4 4L5.33333 5.33333" stroke="#453888" stroke-width="2" stroke-linecap="round" stroke-linejoin="round"/>
<path d="M4 4L5.33333 5.33333" stroke="#5946D7" stroke-width="2" stroke-linecap="round" stroke-linejoin="round"/>
<path d="M10 19.3333L12.6667 21.9999" stroke="#2E1066" stroke-width="2" stroke-linecap="round" stroke-linejoin="round"/>
<path d="M10 19.3333L12.6667 21.9999" stroke="#410F9E" stroke-width="2" stroke-linecap="round" stroke-linejoin="round"/>
<path d="M10 19.3333L12.6667 21.9999" stroke="#453888" stroke-width="2" stroke-linecap="round" stroke-linejoin="round"/>
<path d="M10 19.3333L12.6667 21.9999" stroke="#5946D7" stroke-width="2" stroke-linecap="round" stroke-linejoin="round"/>
<path d="M28.7276 7.98665L25.8996 10.8146C25.3783 11.336 24.5343 11.336 24.0143 10.8146L21.1849 7.98665C20.6636 7.46532 20.6636 6.62132 21.1849 6.10132L24.0129 3.27332" stroke="#2E1066" stroke-width="2" stroke-linecap="round" stroke-linejoin="round"/>
<path d="M28.7276 7.98665L25.8996 10.8146C25.3783 11.336 24.5343 11.336 24.0143 10.8146L21.1849 7.98665C20.6636 7.46532 20.6636 6.62132 21.1849 6.10132L24.0129 3.27332" stroke="#410F9E" stroke-width="2" stroke-linecap="round" stroke-linejoin="round"/>
<path d="M28.7276 7.98665L25.8996 10.8146C25.3783 11.336 24.5343 11.336 24.0143 10.8146L21.1849 7.98665C20.6636 7.46532 20.6636 6.62132 21.1849 6.10132L24.0129 3.27332" stroke="#453888" stroke-width="2" stroke-linecap="round" stroke-linejoin="round"/>
<path d="M28.7276 7.98665L25.8996 10.8146C25.3783 11.336 24.5343 11.336 24.0143 10.8146L21.1849 7.98665C20.6636 7.46532 20.6636 6.62132 21.1849 6.10132L24.0129 3.27332" stroke="#5946D7" stroke-width="2" stroke-linecap="round" stroke-linejoin="round"/>
</svg>
