<svg width="32" height="26" viewBox="0 0 32 26" fill="none" xmlns="http://www.w3.org/2000/svg">
<g opacity="0.1">
<path d="M5.5 9.00012L9 8.50012L11 6.00012H18V25.5001L12.5 25.0001L9 19.5001H5.5V9.00012Z" fill="#2E1066"/>
<path d="M5.5 9.00012L9 8.50012L11 6.00012H18V25.5001L12.5 25.0001L9 19.5001H5.5V9.00012Z" fill="#410F9E"/>
<path d="M5.5 9.00012L9 8.50012L11 6.00012H18V25.5001L12.5 25.0001L9 19.5001H5.5V9.00012Z" fill="#453888"/>
<path d="M5.5 9.00012L9 8.50012L11 6.00012H18V25.5001L12.5 25.0001L9 19.5001H5.5V9.00012Z" fill="#5946D7"/>
</g>
<path d="M1.33317 9V19.6667" stroke="#2E1066" stroke-width="2" stroke-linecap="round" stroke-linejoin="round"/>
<path d="M1.33317 9V19.6667" stroke="#410F9E" stroke-width="2" stroke-linecap="round" stroke-linejoin="round"/>
<path d="M1.33317 9V19.6667" stroke="#453888" stroke-width="2" stroke-linecap="round" stroke-linejoin="round"/>
<path d="M1.33317 9V19.6667" stroke="#5946D7" stroke-width="2" stroke-linecap="round" stroke-linejoin="round"/>
<path d="M15.9997 1V6.33333" stroke="#2E1066" stroke-width="2" stroke-linecap="round" stroke-linejoin="round"/>
<path d="M15.9997 1V6.33333" stroke="#410F9E" stroke-width="2" stroke-linecap="round" stroke-linejoin="round"/>
<path d="M15.9997 1V6.33333" stroke="#453888" stroke-width="2" stroke-linecap="round" stroke-linejoin="round"/>
<path d="M15.9997 1V6.33333" stroke="#5946D7" stroke-width="2" stroke-linecap="round" stroke-linejoin="round"/>
<path d="M12 1.00004H20" stroke="#2E1066" stroke-width="2" stroke-linecap="round" stroke-linejoin="round"/>
<path d="M12 1.00004H20" stroke="#410F9E" stroke-width="2" stroke-linecap="round" stroke-linejoin="round"/>
<path d="M12 1.00004H20" stroke="#453888" stroke-width="2" stroke-linecap="round" stroke-linejoin="round"/>
<path d="M12 1.00004H20" stroke="#5946D7" stroke-width="2" stroke-linecap="round" stroke-linejoin="round"/>
<path fill-rule="evenodd" clip-rule="evenodd" d="M26.6663 9.00004V11.6667H23.9997L21.333 6.33337H10.6663L7.99967 9.00004H5.33301V19.6667H9.33301L11.6317 24.2627C11.857 24.7147 12.3183 25 12.8237 25H21.333C22.069 25 22.6663 24.4027 22.6663 23.6667V19.6667H26.6663V22.3334H29.333C30.069 22.3334 30.6663 21.736 30.6663 21V10.3334C30.6663 9.59737 30.069 9.00004 29.333 9.00004H26.6663Z" stroke="#2E1066" stroke-width="2" stroke-linecap="round" stroke-linejoin="round"/>
<path fill-rule="evenodd" clip-rule="evenodd" d="M26.6663 9.00004V11.6667H23.9997L21.333 6.33337H10.6663L7.99967 9.00004H5.33301V19.6667H9.33301L11.6317 24.2627C11.857 24.7147 12.3183 25 12.8237 25H21.333C22.069 25 22.6663 24.4027 22.6663 23.6667V19.6667H26.6663V22.3334H29.333C30.069 22.3334 30.6663 21.736 30.6663 21V10.3334C30.6663 9.59737 30.069 9.00004 29.333 9.00004H26.6663Z" stroke="#410F9E" stroke-width="2" stroke-linecap="round" stroke-linejoin="round"/>
<path fill-rule="evenodd" clip-rule="evenodd" d="M26.6663 9.00004V11.6667H23.9997L21.333 6.33337H10.6663L7.99967 9.00004H5.33301V19.6667H9.33301L11.6317 24.2627C11.857 24.7147 12.3183 25 12.8237 25H21.333C22.069 25 22.6663 24.4027 22.6663 23.6667V19.6667H26.6663V22.3334H29.333C30.069 22.3334 30.6663 21.736 30.6663 21V10.3334C30.6663 9.59737 30.069 9.00004 29.333 9.00004H26.6663Z" stroke="#453888" stroke-width="2" stroke-linecap="round" stroke-linejoin="round"/>
<path fill-rule="evenodd" clip-rule="evenodd" d="M26.6663 9.00004V11.6667H23.9997L21.333 6.33337H10.6663L7.99967 9.00004H5.33301V19.6667H9.33301L11.6317 24.2627C11.857 24.7147 12.3183 25 12.8237 25H21.333C22.069 25 22.6663 24.4027 22.6663 23.6667V19.6667H26.6663V22.3334H29.333C30.069 22.3334 30.6663 21.736 30.6663 21V10.3334C30.6663 9.59737 30.069 9.00004 29.333 9.00004H26.6663Z" stroke="#5946D7" stroke-width="2" stroke-linecap="round" stroke-linejoin="round"/>
<path d="M5.33301 14.3334H1.33301" stroke="#2E1066" stroke-width="2" stroke-linecap="round" stroke-linejoin="round"/>
<path d="M5.33301 14.3334H1.33301" stroke="#410F9E" stroke-width="2" stroke-linecap="round" stroke-linejoin="round"/>
<path d="M5.33301 14.3334H1.33301" stroke="#453888" stroke-width="2" stroke-linecap="round" stroke-linejoin="round"/>
<path d="M5.33301 14.3334H1.33301" stroke="#5946D7" stroke-width="2" stroke-linecap="round" stroke-linejoin="round"/>
</svg>
