<svg width="34" height="34" viewBox="0 0 34 34" fill="none" xmlns="http://www.w3.org/2000/svg">
<path d="M18 20.9999L8.5 9.49988L9 8.99988H21L27.5 15.9999L28 26.9999L27 28.4999H18V20.9999Z" fill="#5946D7" fill-opacity="0.1"/>
<path d="M11.6665 25H18.3332" stroke="#2E1066" stroke-width="2" stroke-linecap="round" stroke-linejoin="round"/>
<path d="M11.6665 25H18.3332" stroke="#410F9E" stroke-width="2" stroke-linecap="round" stroke-linejoin="round"/>
<path d="M11.6665 25H18.3332" stroke="#453888" stroke-width="2" stroke-linecap="round" stroke-linejoin="round"/>
<path d="M11.6665 25H18.3332" stroke="#5946D7" stroke-width="2" stroke-linecap="round" stroke-linejoin="round"/>
<path d="M11.6665 21H14.3332" stroke="#2E1066" stroke-width="2" stroke-linecap="round" stroke-linejoin="round"/>
<path d="M11.6665 21H14.3332" stroke="#410F9E" stroke-width="2" stroke-linecap="round" stroke-linejoin="round"/>
<path d="M11.6665 21H14.3332" stroke="#453888" stroke-width="2" stroke-linecap="round" stroke-linejoin="round"/>
<path d="M11.6665 21H14.3332" stroke="#5946D7" stroke-width="2" stroke-linecap="round" stroke-linejoin="round"/>
<path d="M7.6665 11C7.6665 9.89543 8.56193 9 9.6665 9H20.1714C20.7018 9 21.2106 9.21071 21.5856 9.58579L27.0807 15.0809C27.4558 15.456 27.6665 15.9647 27.6665 16.4951V26C27.6665 27.6569 26.3234 29 24.6665 29H10.6665C9.00965 29 7.6665 27.6569 7.6665 26V11Z" stroke="#2E1066" stroke-width="2" stroke-linecap="round" stroke-linejoin="round"/>
<path d="M7.6665 11C7.6665 9.89543 8.56193 9 9.6665 9H20.1714C20.7018 9 21.2106 9.21071 21.5856 9.58579L27.0807 15.0809C27.4558 15.456 27.6665 15.9647 27.6665 16.4951V26C27.6665 27.6569 26.3234 29 24.6665 29H10.6665C9.00965 29 7.6665 27.6569 7.6665 26V11Z" stroke="#410F9E" stroke-width="2" stroke-linecap="round" stroke-linejoin="round"/>
<path d="M7.6665 11C7.6665 9.89543 8.56193 9 9.6665 9H20.1714C20.7018 9 21.2106 9.21071 21.5856 9.58579L27.0807 15.0809C27.4558 15.456 27.6665 15.9647 27.6665 16.4951V26C27.6665 27.6569 26.3234 29 24.6665 29H10.6665C9.00965 29 7.6665 27.6569 7.6665 26V11Z" stroke="#453888" stroke-width="2" stroke-linecap="round" stroke-linejoin="round"/>
<path d="M7.6665 11C7.6665 9.89543 8.56193 9 9.6665 9H20.1714C20.7018 9 21.2106 9.21071 21.5856 9.58579L27.0807 15.0809C27.4558 15.456 27.6665 15.9647 27.6665 16.4951V26C27.6665 27.6569 26.3234 29 24.6665 29H10.6665C9.00965 29 7.6665 27.6569 7.6665 26V11Z" stroke="#5946D7" stroke-width="2" stroke-linecap="round" stroke-linejoin="round"/>
<path d="M17.6663 9V6C17.6663 5.44772 17.2186 5 16.6663 5H11.333C10.7807 5 10.333 5.44772 10.333 6V9" stroke="#2E1066" stroke-width="2"/>
<path d="M17.6663 9V6C17.6663 5.44772 17.2186 5 16.6663 5H11.333C10.7807 5 10.333 5.44772 10.333 6V9" stroke="#410F9E" stroke-width="2"/>
<path d="M17.6663 9V6C17.6663 5.44772 17.2186 5 16.6663 5H11.333C10.7807 5 10.333 5.44772 10.333 6V9" stroke="#453888" stroke-width="2"/>
<path d="M17.6663 9V6C17.6663 5.44772 17.2186 5 16.6663 5H11.333C10.7807 5 10.333 5.44772 10.333 6V9" stroke="#5946D7" stroke-width="2"/>
<rect x="19.0806" y="12.2524" width="7.17157" height="3.58579" rx="1.79289" transform="rotate(45 19.0806 12.2524)" stroke="#2E1066" stroke-width="2"/>
<rect x="19.0806" y="12.2524" width="7.17157" height="3.58579" rx="1.79289" transform="rotate(45 19.0806 12.2524)" stroke="#410F9E" stroke-width="2"/>
<rect x="19.0806" y="12.2524" width="7.17157" height="3.58579" rx="1.79289" transform="rotate(45 19.0806 12.2524)" stroke="#453888" stroke-width="2"/>
<rect x="19.0806" y="12.2524" width="7.17157" height="3.58579" rx="1.79289" transform="rotate(45 19.0806 12.2524)" stroke="#5946D7" stroke-width="2"/>
</svg>
