<svg width="32" height="32" viewBox="0 0 32 32" fill="none" xmlns="http://www.w3.org/2000/svg">
<path fill-rule="evenodd" clip-rule="evenodd" d="M29.2947 15.9613C29.2947 8.61862 23.3427 2.66663 16 2.66663V7.98396C20.4053 7.98396 23.9773 11.5546 23.9773 15.9613H29.2947Z" fill="#5946D7" fill-opacity="0.1"/>
<path fill-rule="evenodd" clip-rule="evenodd" d="M29.2947 15.9613C29.2947 8.61862 23.3427 2.66663 16 2.66663V7.98396C20.4053 7.98396 23.9773 11.5546 23.9773 15.9613H29.2947Z" stroke="#2E1066" stroke-width="2" stroke-linecap="round" stroke-linejoin="round"/>
<path fill-rule="evenodd" clip-rule="evenodd" d="M29.2947 15.9613C29.2947 8.61862 23.3427 2.66663 16 2.66663V7.98396C20.4053 7.98396 23.9773 11.5546 23.9773 15.9613H29.2947Z" stroke="#410F9E" stroke-width="2" stroke-linecap="round" stroke-linejoin="round"/>
<path fill-rule="evenodd" clip-rule="evenodd" d="M29.2947 15.9613C29.2947 8.61862 23.3427 2.66663 16 2.66663V7.98396C20.4053 7.98396 23.9773 11.5546 23.9773 15.9613H29.2947Z" stroke="#453888" stroke-width="2" stroke-linecap="round" stroke-linejoin="round"/>
<path fill-rule="evenodd" clip-rule="evenodd" d="M29.2947 15.9613C29.2947 8.61862 23.3427 2.66663 16 2.66663V7.98396C20.4053 7.98396 23.9773 11.5546 23.9773 15.9613H29.2947Z" stroke="#5946D7" stroke-width="2" stroke-linecap="round" stroke-linejoin="round"/>
<path d="M26.5614 15.9614V16.7C26.5614 22.9414 21.5028 28 15.2614 28C9.02009 28 3.96143 22.9414 3.96143 16.7C3.96143 10.4587 9.02009 5.40002 15.2614 5.40002H16.0001" stroke="#2E1066" stroke-width="2" stroke-linecap="round" stroke-linejoin="round"/>
<path d="M26.5614 15.9614V16.7C26.5614 22.9414 21.5028 28 15.2614 28C9.02009 28 3.96143 22.9414 3.96143 16.7C3.96143 10.4587 9.02009 5.40002 15.2614 5.40002H16.0001" stroke="#410F9E" stroke-width="2" stroke-linecap="round" stroke-linejoin="round"/>
<path d="M26.5614 15.9614V16.7C26.5614 22.9414 21.5028 28 15.2614 28C9.02009 28 3.96143 22.9414 3.96143 16.7C3.96143 10.4587 9.02009 5.40002 15.2614 5.40002H16.0001" stroke="#453888" stroke-width="2" stroke-linecap="round" stroke-linejoin="round"/>
<path d="M26.5614 15.9614V16.7C26.5614 22.9414 21.5028 28 15.2614 28C9.02009 28 3.96143 22.9414 3.96143 16.7C3.96143 10.4587 9.02009 5.40002 15.2614 5.40002H16.0001" stroke="#5946D7" stroke-width="2" stroke-linecap="round" stroke-linejoin="round"/>
<path fill-rule="evenodd" clip-rule="evenodd" d="M18.2375 13.7235C19.8814 15.3673 19.8814 18.0325 18.2375 19.6764C16.5937 21.3202 13.9285 21.3202 12.2846 19.6764C10.6408 18.0325 10.6408 15.3673 12.2846 13.7235C13.9285 12.0796 16.5937 12.0796 18.2375 13.7235Z" fill="#5946D7" fill-opacity="0.1"/>
<path d="M18.2375 13.7235C19.8814 15.3673 19.8814 18.0325 18.2375 19.6764C16.5937 21.3202 13.9285 21.3202 12.2846 19.6764C10.6408 18.0325 10.6408 15.3673 12.2846 13.7235C13.9285 12.0796 16.5937 12.0796 18.2375 13.7235" stroke="#2E1066" stroke-width="2" stroke-linecap="round" stroke-linejoin="round"/>
<path d="M18.2375 13.7235C19.8814 15.3673 19.8814 18.0325 18.2375 19.6764C16.5937 21.3202 13.9285 21.3202 12.2846 19.6764C10.6408 18.0325 10.6408 15.3673 12.2846 13.7235C13.9285 12.0796 16.5937 12.0796 18.2375 13.7235" stroke="#410F9E" stroke-width="2" stroke-linecap="round" stroke-linejoin="round"/>
<path d="M18.2375 13.7235C19.8814 15.3673 19.8814 18.0325 18.2375 19.6764C16.5937 21.3202 13.9285 21.3202 12.2846 19.6764C10.6408 18.0325 10.6408 15.3673 12.2846 13.7235C13.9285 12.0796 16.5937 12.0796 18.2375 13.7235" stroke="#453888" stroke-width="2" stroke-linecap="round" stroke-linejoin="round"/>
<path d="M18.2375 13.7235C19.8814 15.3673 19.8814 18.0325 18.2375 19.6764C16.5937 21.3202 13.9285 21.3202 12.2846 19.6764C10.6408 18.0325 10.6408 15.3673 12.2846 13.7235C13.9285 12.0796 16.5937 12.0796 18.2375 13.7235" stroke="#5946D7" stroke-width="2" stroke-linecap="round" stroke-linejoin="round"/>
</svg>
