<svg width="32" height="32" viewBox="0 0 32 32" fill="none" xmlns="http://www.w3.org/2000/svg">
<path fill-rule="evenodd" clip-rule="evenodd" d="M25.4284 6.57187C30.6354 11.7789 30.6354 20.2211 25.4284 25.428C20.2214 30.635 11.7792 30.635 6.57223 25.428C1.36525 20.221 1.36525 11.7788 6.57223 6.57187C11.7792 1.36488 20.2214 1.36488 25.4284 6.57187Z" fill="#5946D7" fill-opacity="0.1"/>
<path d="M25.4284 6.57187C30.6354 11.7789 30.6354 20.2211 25.4284 25.428C20.2214 30.635 11.7792 30.635 6.57223 25.428C1.36525 20.221 1.36525 11.7788 6.57223 6.57187C11.7792 1.36488 20.2214 1.36488 25.4284 6.57187" stroke="#2E1066" stroke-width="2" stroke-linecap="round" stroke-linejoin="round"/>
<path d="M25.4284 6.57187C30.6354 11.7789 30.6354 20.2211 25.4284 25.428C20.2214 30.635 11.7792 30.635 6.57223 25.428C1.36525 20.221 1.36525 11.7788 6.57223 6.57187C11.7792 1.36488 20.2214 1.36488 25.4284 6.57187" stroke="#410F9E" stroke-width="2" stroke-linecap="round" stroke-linejoin="round"/>
<path d="M25.4284 6.57187C30.6354 11.7789 30.6354 20.2211 25.4284 25.428C20.2214 30.635 11.7792 30.635 6.57223 25.428C1.36525 20.221 1.36525 11.7788 6.57223 6.57187C11.7792 1.36488 20.2214 1.36488 25.4284 6.57187" stroke="#453888" stroke-width="2" stroke-linecap="round" stroke-linejoin="round"/>
<path d="M25.4284 6.57187C30.6354 11.7789 30.6354 20.2211 25.4284 25.428C20.2214 30.635 11.7792 30.635 6.57223 25.428C1.36525 20.221 1.36525 11.7788 6.57223 6.57187C11.7792 1.36488 20.2214 1.36488 25.4284 6.57187" stroke="#5946D7" stroke-width="2" stroke-linecap="round" stroke-linejoin="round"/>
<path fill-rule="evenodd" clip-rule="evenodd" d="M22.6 9.4003C26.2449 13.0452 26.2449 18.9547 22.6 22.5996C18.9551 26.2445 13.0456 26.2445 9.40066 22.5996C5.75577 18.9547 5.75577 13.0452 9.40066 9.4003C13.0456 5.7554 18.9551 5.7554 22.6 9.4003Z" fill="white"/>
<path d="M22.6 9.4003C26.2449 13.0452 26.2449 18.9547 22.6 22.5996C18.9551 26.2445 13.0456 26.2445 9.40066 22.5996C5.75577 18.9547 5.75577 13.0452 9.40066 9.4003C13.0456 5.7554 18.9551 5.7554 22.6 9.4003" stroke="#2E1066" stroke-width="2" stroke-linecap="round" stroke-linejoin="round"/>
<path d="M22.6 9.4003C26.2449 13.0452 26.2449 18.9547 22.6 22.5996C18.9551 26.2445 13.0456 26.2445 9.40066 22.5996C5.75577 18.9547 5.75577 13.0452 9.40066 9.4003C13.0456 5.7554 18.9551 5.7554 22.6 9.4003" stroke="#410F9E" stroke-width="2" stroke-linecap="round" stroke-linejoin="round"/>
<path d="M22.6 9.4003C26.2449 13.0452 26.2449 18.9547 22.6 22.5996C18.9551 26.2445 13.0456 26.2445 9.40066 22.5996C5.75577 18.9547 5.75577 13.0452 9.40066 9.4003C13.0456 5.7554 18.9551 5.7554 22.6 9.4003" stroke="#453888" stroke-width="2" stroke-linecap="round" stroke-linejoin="round"/>
<path d="M22.6 9.4003C26.2449 13.0452 26.2449 18.9547 22.6 22.5996C18.9551 26.2445 13.0456 26.2445 9.40066 22.5996C5.75577 18.9547 5.75577 13.0452 9.40066 9.4003C13.0456 5.7554 18.9551 5.7554 22.6 9.4003" stroke="#5946D7" stroke-width="2" stroke-linecap="round" stroke-linejoin="round"/>
<path d="M16.0002 13.3333V6.66663" stroke="#2E1066" stroke-width="2" stroke-linecap="round" stroke-linejoin="round"/>
<path d="M16.0002 13.3333V6.66663" stroke="#410F9E" stroke-width="2" stroke-linecap="round" stroke-linejoin="round"/>
<path d="M16.0002 13.3333V6.66663" stroke="#453888" stroke-width="2" stroke-linecap="round" stroke-linejoin="round"/>
<path d="M16.0002 13.3333V6.66663" stroke="#5946D7" stroke-width="2" stroke-linecap="round" stroke-linejoin="round"/>
<path d="M16.0002 25.3333V18.6666" stroke="#2E1066" stroke-width="2" stroke-linecap="round" stroke-linejoin="round"/>
<path d="M16.0002 25.3333V18.6666" stroke="#410F9E" stroke-width="2" stroke-linecap="round" stroke-linejoin="round"/>
<path d="M16.0002 25.3333V18.6666" stroke="#453888" stroke-width="2" stroke-linecap="round" stroke-linejoin="round"/>
<path d="M16.0002 25.3333V18.6666" stroke="#5946D7" stroke-width="2" stroke-linecap="round" stroke-linejoin="round"/>
<path d="M17.8804 14.1199L22.6004 9.3999" stroke="#2E1066" stroke-width="2" stroke-linecap="round" stroke-linejoin="round"/>
<path d="M17.8804 14.1199L22.6004 9.3999" stroke="#410F9E" stroke-width="2" stroke-linecap="round" stroke-linejoin="round"/>
<path d="M17.8804 14.1199L22.6004 9.3999" stroke="#453888" stroke-width="2" stroke-linecap="round" stroke-linejoin="round"/>
<path d="M17.8804 14.1199L22.6004 9.3999" stroke="#5946D7" stroke-width="2" stroke-linecap="round" stroke-linejoin="round"/>
<path d="M9.40039 22.6L14.1204 17.88" stroke="#2E1066" stroke-width="2" stroke-linecap="round" stroke-linejoin="round"/>
<path d="M9.40039 22.6L14.1204 17.88" stroke="#410F9E" stroke-width="2" stroke-linecap="round" stroke-linejoin="round"/>
<path d="M9.40039 22.6L14.1204 17.88" stroke="#453888" stroke-width="2" stroke-linecap="round" stroke-linejoin="round"/>
<path d="M9.40039 22.6L14.1204 17.88" stroke="#5946D7" stroke-width="2" stroke-linecap="round" stroke-linejoin="round"/>
<path d="M18.667 15.9999H25.3337" stroke="#2E1066" stroke-width="2" stroke-linecap="round" stroke-linejoin="round"/>
<path d="M18.667 15.9999H25.3337" stroke="#410F9E" stroke-width="2" stroke-linecap="round" stroke-linejoin="round"/>
<path d="M18.667 15.9999H25.3337" stroke="#453888" stroke-width="2" stroke-linecap="round" stroke-linejoin="round"/>
<path d="M18.667 15.9999H25.3337" stroke="#5946D7" stroke-width="2" stroke-linecap="round" stroke-linejoin="round"/>
<path d="M6.66699 15.9999H13.3337" stroke="#2E1066" stroke-width="2" stroke-linecap="round" stroke-linejoin="round"/>
<path d="M6.66699 15.9999H13.3337" stroke="#410F9E" stroke-width="2" stroke-linecap="round" stroke-linejoin="round"/>
<path d="M6.66699 15.9999H13.3337" stroke="#453888" stroke-width="2" stroke-linecap="round" stroke-linejoin="round"/>
<path d="M6.66699 15.9999H13.3337" stroke="#5946D7" stroke-width="2" stroke-linecap="round" stroke-linejoin="round"/>
<path d="M17.8804 17.88L22.6004 22.6" stroke="#2E1066" stroke-width="2" stroke-linecap="round" stroke-linejoin="round"/>
<path d="M17.8804 17.88L22.6004 22.6" stroke="#410F9E" stroke-width="2" stroke-linecap="round" stroke-linejoin="round"/>
<path d="M17.8804 17.88L22.6004 22.6" stroke="#453888" stroke-width="2" stroke-linecap="round" stroke-linejoin="round"/>
<path d="M17.8804 17.88L22.6004 22.6" stroke="#5946D7" stroke-width="2" stroke-linecap="round" stroke-linejoin="round"/>
<path d="M9.40039 9.3999L14.1204 14.1199" stroke="#2E1066" stroke-width="2" stroke-linecap="round" stroke-linejoin="round"/>
<path d="M9.40039 9.3999L14.1204 14.1199" stroke="#410F9E" stroke-width="2" stroke-linecap="round" stroke-linejoin="round"/>
<path d="M9.40039 9.3999L14.1204 14.1199" stroke="#453888" stroke-width="2" stroke-linecap="round" stroke-linejoin="round"/>
<path d="M9.40039 9.3999L14.1204 14.1199" stroke="#5946D7" stroke-width="2" stroke-linecap="round" stroke-linejoin="round"/>
<path fill-rule="evenodd" clip-rule="evenodd" d="M17.8858 14.1143C18.9272 15.1557 18.9272 16.8441 17.8858 17.8855C16.8444 18.9269 15.1559 18.9269 14.1145 17.8855C13.0731 16.8441 13.0731 15.1557 14.1145 14.1143C15.1559 13.0729 16.8444 13.0729 17.8858 14.1143Z" fill="white"/>
<path d="M17.8858 14.1143C18.9272 15.1557 18.9272 16.8441 17.8858 17.8855C16.8444 18.9269 15.1559 18.9269 14.1145 17.8855C13.0731 16.8441 13.0731 15.1557 14.1145 14.1143C15.1559 13.0729 16.8444 13.0729 17.8858 14.1143" stroke="#2E1066" stroke-width="2" stroke-linecap="round" stroke-linejoin="round"/>
<path d="M17.8858 14.1143C18.9272 15.1557 18.9272 16.8441 17.8858 17.8855C16.8444 18.9269 15.1559 18.9269 14.1145 17.8855C13.0731 16.8441 13.0731 15.1557 14.1145 14.1143C15.1559 13.0729 16.8444 13.0729 17.8858 14.1143" stroke="#410F9E" stroke-width="2" stroke-linecap="round" stroke-linejoin="round"/>
<path d="M17.8858 14.1143C18.9272 15.1557 18.9272 16.8441 17.8858 17.8855C16.8444 18.9269 15.1559 18.9269 14.1145 17.8855C13.0731 16.8441 13.0731 15.1557 14.1145 14.1143C15.1559 13.0729 16.8444 13.0729 17.8858 14.1143" stroke="#453888" stroke-width="2" stroke-linecap="round" stroke-linejoin="round"/>
<path d="M17.8858 14.1143C18.9272 15.1557 18.9272 16.8441 17.8858 17.8855C16.8444 18.9269 15.1559 18.9269 14.1145 17.8855C13.0731 16.8441 13.0731 15.1557 14.1145 14.1143C15.1559 13.0729 16.8444 13.0729 17.8858 14.1143" stroke="#5946D7" stroke-width="2" stroke-linecap="round" stroke-linejoin="round"/>
</svg>
