<svg width="24" height="24" viewBox="0 0 24 24" fill="none" xmlns="http://www.w3.org/2000/svg">
<path fill-rule="evenodd" clip-rule="evenodd" d="M18 8C18 4.68629 15.3137 2 12 2C8.68629 2 6 4.68629 6 8C6 15 3 17 3 17H21C21 17 18 15 18 8Z" fill="#6B59CC" fill-opacity="0.1"/>
<path d="M18 8C18 4.68629 15.3137 2 12 2C8.68629 2 6 4.68629 6 8C6 15 3 17 3 17H21C21 17 18 15 18 8" stroke="#2E1066" stroke-width="1.5" stroke-linecap="round" stroke-linejoin="round"/>
<path d="M18 8C18 4.68629 15.3137 2 12 2C8.68629 2 6 4.68629 6 8C6 15 3 17 3 17H21C21 17 18 15 18 8" stroke="#410F9E" stroke-width="1.5" stroke-linecap="round" stroke-linejoin="round"/>
<path d="M18 8C18 4.68629 15.3137 2 12 2C8.68629 2 6 4.68629 6 8C6 15 3 17 3 17H21C21 17 18 15 18 8" stroke="#453888" stroke-width="1.5" stroke-linecap="round" stroke-linejoin="round"/>
<path d="M18 8C18 4.68629 15.3137 2 12 2C8.68629 2 6 4.68629 6 8C6 15 3 17 3 17H21C21 17 18 15 18 8" stroke="#5946D7" stroke-width="1.5" stroke-linecap="round" stroke-linejoin="round"/>
<path d="M18 8C18 4.68629 15.3137 2 12 2C8.68629 2 6 4.68629 6 8C6 15 3 17 3 17H21C21 17 18 15 18 8" stroke="#6B59CC" stroke-width="1.5" stroke-linecap="round" stroke-linejoin="round"/>
<path d="M13.73 20.9998C13.3722 21.6166 12.7131 21.9963 12 21.9963C11.287 21.9963 10.6278 21.6166 10.27 20.9998" stroke="#2E1066" stroke-width="1.5" stroke-linecap="round" stroke-linejoin="round"/>
<path d="M13.73 20.9998C13.3722 21.6166 12.7131 21.9963 12 21.9963C11.287 21.9963 10.6278 21.6166 10.27 20.9998" stroke="#410F9E" stroke-width="1.5" stroke-linecap="round" stroke-linejoin="round"/>
<path d="M13.73 20.9998C13.3722 21.6166 12.7131 21.9963 12 21.9963C11.287 21.9963 10.6278 21.6166 10.27 20.9998" stroke="#453888" stroke-width="1.5" stroke-linecap="round" stroke-linejoin="round"/>
<path d="M13.73 20.9998C13.3722 21.6166 12.7131 21.9963 12 21.9963C11.287 21.9963 10.6278 21.6166 10.27 20.9998" stroke="#5946D7" stroke-width="1.5" stroke-linecap="round" stroke-linejoin="round"/>
<path d="M13.73 20.9998C13.3722 21.6166 12.7131 21.9963 12 21.9963C11.287 21.9963 10.6278 21.6166 10.27 20.9998" stroke="#6B59CC" stroke-width="1.5" stroke-linecap="round" stroke-linejoin="round"/>
</svg>
