<svg xmlns="http://www.w3.org/2000/svg" fill="none" viewBox="0 0 32 32" id="catalog-1"><path fill-rule="evenodd" clip-rule="evenodd" d="M29.295 15.961C29.295 8.62 23.343 2.667 16 2.667v5.317a7.977 7.977 0 017.977 7.977h5.318z" fill="#5946D7" fill-opacity=".1" stroke="#5946D7" stroke-width="2" stroke-linecap="round" stroke-linejoin="round"></path><path d="M26.561 15.961v.739c0 6.241-5.058 11.3-11.3 11.3-6.241 0-11.3-5.059-11.3-11.3 0-6.241 5.059-11.3 11.3-11.3H16" stroke="#5946D7" stroke-width="2" stroke-linecap="round" stroke-linejoin="round"></path><path fill-rule="evenodd" clip-rule="evenodd" d="M18.238 13.724a4.21 4.21 0 11-5.953 5.953 4.21 4.21 0 015.953-5.953" fill="#5946D7" fill-opacity=".1"></path><path d="M18.238 13.724a4.21 4.21 0 11-5.953 5.953 4.21 4.21 0 015.953-5.953" stroke="#5946D7" stroke-width="2" stroke-linecap="round" stroke-linejoin="round"></path></svg>