<svg xmlns="http://www.w3.org/2000/svg" fill="none" viewBox="0 0 32 32" id="catalog-7"><path d="M17 20L7.5 8.5 8 8h12l6.5 7 .5 11-1 1.5h-9V20z" fill="#5946D7" fill-opacity=".1"></path><path d="M10.667 24h6.666M10.667 20h2.666M6.667 10a2 2 0 012-2h10.505a2 2 0 011.414.586l5.495 5.495a2 2 0 01.586 1.414V25a3 3 0 01-3 3h-14a3 3 0 01-3-3V10z" stroke="#5946D7" stroke-width="2" stroke-linecap="round" stroke-linejoin="round"></path><path d="M16.667 8V5a1 1 0 00-1-1h-5.334a1 1 0 00-1 1v3" stroke="#5946D7" stroke-width="2"></path><rect x="18.081" y="11.252" width="7.172" height="3.586" rx="1.793" transform="rotate(45 18.08 11.252)" stroke="#5946D7" stroke-width="2"></rect></svg>