<svg xmlns="http://www.w3.org/2000/svg" fill="none" viewBox="0 0 34 34" id="catalog-3"><path d="M3 27V9l12-6.5L13 17H8.5v10H3z" fill="#5946D7" fill-opacity=".1"></path><path d="M12.197 9.914h5.354M12.748 17H8.497v9.92" stroke="#5946D7" stroke-width="2" stroke-linecap="round" stroke-linejoin="round"></path><path d="M8.496 26.92H2.827V10.71c0-.972.528-1.868 1.378-2.34l9.37-5.205a2.677 2.677 0 012.6 0l9.37 5.205a2.677 2.677 0 011.376 2.34v2.038" stroke="#5946D7" stroke-width="2" stroke-linecap="round" stroke-linejoin="round"></path><path fill-rule="evenodd" clip-rule="evenodd" d="M31.173 25.22a2.835 2.835 0 00-2.835-2.834H17a2.835 2.835 0 00-2.835 2.834" fill="#5946D7" fill-opacity=".1"></path><path d="M31.173 25.22a2.835 2.835 0 00-2.835-2.834H17a2.835 2.835 0 00-2.835 2.834" stroke="#5946D7" stroke-width="2" stroke-linecap="round" stroke-linejoin="round"></path><path fill-rule="evenodd" clip-rule="evenodd" d="M14.165 25.22v4.535c0 .783.635 1.418 1.418 1.418h1.403c.783 0 1.417-.635 1.417-1.418v-.936h8.532v.936c0 .783.635 1.418 1.417 1.418h1.403c.783 0 1.418-.635 1.418-1.418V25.22" fill="#5946D7" fill-opacity=".1"></path><path d="M14.165 25.22v4.535c0 .783.635 1.418 1.418 1.418h1.403c.783 0 1.417-.635 1.417-1.418v-.936h8.532v.936c0 .783.635 1.418 1.417 1.418h1.403c.783 0 1.418-.635 1.418-1.418V25.22M19.462 25.645h-2.119M27.995 25.645h-2.119M29.054 22.296l2.119-1.058M16.291 22.296l-2.126-1.058M19.222 17a2.126 2.126 0 00-2.063 1.637l-.899 3.84.899-3.84A2.126 2.126 0 0119.222 17h6.894c.984.003 1.837.68 2.063 1.637l.899 3.84" stroke="#5946D7" stroke-width="2" stroke-linecap="round" stroke-linejoin="round"></path></svg>