<svg xmlns="http://www.w3.org/2000/svg" width="20px" height="20px" fill="none" viewBox="0 0 20 20" id="lk_card"><path d="M1.667 5.833a2.5 2.5 0 012.5-2.5h11.666a2.5 2.5 0 012.5 2.5v.833H1.667v-.833z" fill="#2E1066"></path><path d="M1.667 5.833a2.5 2.5 0 012.5-2.5h11.666a2.5 2.5 0 012.5 2.5v.833H1.667v-.833z" fill="#410F9E"></path><path d="M1.667 5.833a2.5 2.5 0 012.5-2.5h11.666a2.5 2.5 0 012.5 2.5v.833H1.667v-.833z" fill="#453888"></path><path d="M1.667 5.833a2.5 2.5 0 012.5-2.5h11.666a2.5 2.5 0 012.5 2.5v.833H1.667v-.833z" fill="#5946D7"></path><path d="M1.667 5.833a2.5 2.5 0 012.5-2.5h11.666a2.5 2.5 0 012.5 2.5v.833H1.667v-.833z" fill="#6B59CC"></path><path fill-rule="evenodd" clip-rule="evenodd" d="M1.667 8.333h16.666v5.833a2.5 2.5 0 01-2.5 2.5H4.167a2.5 2.5 0 01-2.5-2.5V8.333zM15 12.5a.833.833 0 11-1.667 0 .833.833 0 011.667 0z" fill="#2E1066"></path><path fill-rule="evenodd" clip-rule="evenodd" d="M1.667 8.333h16.666v5.833a2.5 2.5 0 01-2.5 2.5H4.167a2.5 2.5 0 01-2.5-2.5V8.333zM15 12.5a.833.833 0 11-1.667 0 .833.833 0 011.667 0z" fill="#410F9E"></path><path fill-rule="evenodd" clip-rule="evenodd" d="M1.667 8.333h16.666v5.833a2.5 2.5 0 01-2.5 2.5H4.167a2.5 2.5 0 01-2.5-2.5V8.333zM15 12.5a.833.833 0 11-1.667 0 .833.833 0 011.667 0z" fill="#453888"></path><path fill-rule="evenodd" clip-rule="evenodd" d="M1.667 8.333h16.666v5.833a2.5 2.5 0 01-2.5 2.5H4.167a2.5 2.5 0 01-2.5-2.5V8.333zM15 12.5a.833.833 0 11-1.667 0 .833.833 0 011.667 0z" fill="#5946D7"></path><path fill-rule="evenodd" clip-rule="evenodd" d="M1.667 8.333h16.666v5.833a2.5 2.5 0 01-2.5 2.5H4.167a2.5 2.5 0 01-2.5-2.5V8.333zM15 12.5a.833.833 0 11-1.667 0 .833.833 0 011.667 0z" fill="#6B59CC"></path></svg>