<svg xmlns="http://www.w3.org/2000/svg" width="24px" height="24px" fill="none" viewBox="0 0 24 24" id="lk_2"><path fill-rule="evenodd" clip-rule="evenodd" d="M19.596 12.411l-5.688 1.524a1.894 1.894 0 01-2.319-1.339l-1.524-5.688a1.894 1.894 0 011.34-2.319l5.687-1.524a1.894 1.894 0 012.32 1.34l1.523 5.687a1.894 1.894 0 01-1.339 2.32v0z" fill="#6B59CC" stroke="#6B59CC" stroke-width="1.5" stroke-linecap="round" stroke-linejoin="round"></path><g opacity=".4" stroke="#6B59CC" stroke-width="1.5" stroke-linecap="round" stroke-linejoin="round"><path clip-rule="evenodd" d="M9.75 21a2.75 2.75 0 100-5.5 2.75 2.75 0 000 5.5z"></path><path d="M2 3.633l1.666-.446A2 2 0 016.116 4.6M6.116 4.6L9.06 15.588M21.55 15.11l-9.14 2.44"></path></g></svg>