<svg width="16" height="16" viewBox="0 0 16 16" fill="none" xmlns="http://www.w3.org/2000/svg">
<path fill-rule="evenodd" clip-rule="evenodd" d="M12.2442 3.75628C14.5885 6.10059 14.5885 9.90084 12.2442 12.2451C9.89986 14.5895 6.09961 14.5895 3.7553 12.2451C1.41099 9.90084 1.41099 6.10059 3.7553 3.75628C6.09961 1.41197 9.89986 1.41197 12.2442 3.75628" fill="#38A865"/>
<path d="M12.2442 3.75628C14.5885 6.10059 14.5885 9.90084 12.2442 12.2451C9.89986 14.5895 6.09961 14.5895 3.7553 12.2451C1.41099 9.90084 1.41099 6.10059 3.7553 3.75628C6.09961 1.41197 9.89986 1.41197 12.2442 3.75628" stroke="#38A865" stroke-width="2" stroke-linecap="round" stroke-linejoin="round"/>
<path d="M11.111 6.66699L8.44384 9.33477L6.66577 7.55603L4.8877 9.33477" stroke="white" stroke-width="1.5" stroke-linecap="round" stroke-linejoin="round"/>
</svg>
