<svg width="20" height="20" viewBox="0 0 20 20" fill="none" xmlns="http://www.w3.org/2000/svg">
<path fill-rule="evenodd" clip-rule="evenodd" d="M1.9789 4.72463C2.22072 3.32072 3.33662 2.28872 4.74499 2.07443C6.09444 1.8691 7.94567 1.66666 9.99935 1.66666C12.053 1.66666 13.9043 1.8691 15.2537 2.07443C16.6621 2.28872 17.778 3.32072 18.0198 4.72463C18.1883 5.70309 18.3327 6.94603 18.3327 8.33332C18.3327 9.72061 18.1883 10.9636 18.0198 11.942C17.778 13.3459 16.6621 14.3779 15.2537 14.5922C14.0192 14.7801 12.3647 14.9655 10.5194 14.9957L5.42329 18.0071C4.86778 18.3353 4.16602 17.9349 4.16602 17.2896V14.4533C3.03815 14.0782 2.18648 13.1472 1.9789 11.942C1.81036 10.9636 1.66602 9.72061 1.66602 8.33332C1.66602 6.94603 1.81036 5.70309 1.9789 4.72463ZM4.99935 6.66666C4.99935 6.20642 5.37245 5.83332 5.83268 5.83332H14.166C14.6263 5.83332 14.9993 6.20642 14.9993 6.66666C14.9993 7.12689 14.6263 7.49999 14.166 7.49999H5.83268C5.37244 7.49999 4.99935 7.12689 4.99935 6.66666ZM4.99935 9.99999C4.99935 9.53975 5.37245 9.16666 5.83268 9.16666H9.16602C9.62625 9.16666 9.99935 9.53975 9.99935 9.99999C9.99935 10.4602 9.62625 10.8333 9.16602 10.8333H5.83268C5.37245 10.8333 4.99935 10.4602 4.99935 9.99999Z" fill="white"/>
</svg>
