<svg width="20" height="20" viewBox="0 0 20 20" fill="none" xmlns="http://www.w3.org/2000/svg">
<path fill-rule="evenodd" clip-rule="evenodd" d="M16.6666 16.6663V4.81467C16.6666 3.99634 16.0033 3.33301 15.1849 3.33301H4.81492C3.99659 3.33301 3.33325 3.99634 3.33325 4.81467V13.7038C3.33325 14.5222 3.99659 15.1855 4.81492 15.1855H13.8891L16.6666 16.6663Z" stroke="#55556D" stroke-width="1.5" stroke-linecap="round" stroke-linejoin="round"/>
<path d="M10.1474 9.22702C10.2291 9.30868 10.2291 9.44035 10.1474 9.52202C10.0658 9.60368 9.93409 9.60368 9.85242 9.52202C9.77075 9.44035 9.77075 9.30868 9.85242 9.22702C9.93409 9.14535 10.0658 9.14619 10.1474 9.22702" stroke="#55556D" stroke-width="1.5" stroke-linecap="round" stroke-linejoin="round"/>
<path d="M13.4809 9.22702C13.5626 9.30868 13.5626 9.44035 13.4809 9.52202C13.3992 9.60368 13.2676 9.60368 13.1859 9.52202C13.1042 9.44035 13.1042 9.30868 13.1859 9.22702C13.2676 9.14535 13.3992 9.14619 13.4809 9.22702" stroke="#55556D" stroke-width="1.5" stroke-linecap="round" stroke-linejoin="round"/>
<path d="M6.81417 9.22702C6.89583 9.30868 6.89583 9.44035 6.81417 9.52202C6.7325 9.60368 6.60083 9.60368 6.51917 9.52202C6.4375 9.44035 6.4375 9.30868 6.51917 9.22702C6.60083 9.14535 6.7325 9.14619 6.81417 9.22702" stroke="#55556D" stroke-width="1.5" stroke-linecap="round" stroke-linejoin="round"/>
</svg>
