<svg width="16" height="18" viewBox="0 0 16 18" fill="none" xmlns="http://www.w3.org/2000/svg">
<path d="M3.74857 4.41668C3.74857 4.00247 3.41278 3.66668 2.99857 3.66668C2.58436 3.66668 2.24857 4.00247 2.24857 4.41668H3.74857ZM13.7527 4.00002C13.7527 3.5858 13.4169 3.25002 13.0027 3.25002C12.5885 3.25002 12.2527 3.5858 12.2527 4.00002H13.7527ZM10.418 7.33265C10.418 6.91844 10.0822 6.58265 9.66802 6.58265C9.2538 6.58265 8.91802 6.91844 8.91802 7.33265H10.418ZM8.91802 13.1684C8.91802 13.5826 9.2538 13.9184 9.66802 13.9184C10.0822 13.9184 10.418 13.5826 10.418 13.1684H8.91802ZM7.08329 7.33265C7.08329 6.91844 6.7475 6.58265 6.33329 6.58265C5.91908 6.58265 5.58329 6.91844 5.58329 7.33265H7.08329ZM5.58329 13.1684C5.58329 13.5826 5.91908 13.9184 6.33329 13.9184C6.7475 13.9184 7.08329 13.5826 7.08329 13.1684H5.58329ZM1.74805 3.24793C1.33383 3.24793 0.998047 3.58372 0.998047 3.99793C0.998047 4.41215 1.33383 4.74793 1.74805 4.74793V3.24793ZM14.2533 4.74793C14.6675 4.74793 15.0033 4.41215 15.0033 3.99793C15.0033 3.58372 14.6675 3.24793 14.2533 3.24793V4.74793ZM3.95442 3.76076C3.82343 4.15372 4.0358 4.57846 4.42876 4.70944C4.82171 4.84043 5.24645 4.62806 5.37744 4.2351L3.95442 3.76076ZM5.11945 2.63736L5.83096 2.87454L5.83102 2.87436L5.11945 2.63736ZM6.70178 1.49689L6.7016 2.24689H6.70178V1.49689ZM9.29952 1.49689V2.24689L9.30045 2.24689L9.29952 1.49689ZM10.8835 2.63736L11.5953 2.40098L11.5951 2.40037L10.8835 2.63736ZM10.6236 4.23432C10.7541 4.62742 11.1787 4.84026 11.5718 4.7097C11.9649 4.57915 12.1777 4.15465 12.0471 3.76154L10.6236 4.23432ZM2.24857 4.41668V14.8358H3.74857V4.41668H2.24857ZM2.24857 14.8358C2.24857 16.1708 3.33086 17.2531 4.66593 17.2531V15.7531C4.15929 15.7531 3.74857 15.3424 3.74857 14.8358H2.24857ZM4.66593 17.2531H11.3354V15.7531H4.66593V17.2531ZM11.3354 17.2531C12.6704 17.2531 13.7527 16.1708 13.7527 14.8358H12.2527C12.2527 15.3424 11.842 15.7531 11.3354 15.7531V17.2531ZM13.7527 14.8358V4.00002H12.2527V14.8358H13.7527ZM8.91802 7.33265V13.1684H10.418V7.33265H8.91802ZM5.58329 7.33265V13.1684H7.08329V7.33265H5.58329ZM1.74805 4.74793H14.2533V3.24793H1.74805V4.74793ZM5.37744 4.2351L5.83096 2.87454L4.40794 2.40019L3.95442 3.76076L5.37744 4.2351ZM5.83102 2.87436C5.95585 2.49958 6.30657 2.24679 6.7016 2.24689L6.70195 0.746888C5.66102 0.74664 4.73682 1.41277 4.40788 2.40036L5.83102 2.87436ZM6.70178 2.24689H9.29952V0.746888H6.70178V2.24689ZM9.30045 2.24689C9.69581 2.2464 10.047 2.49926 10.1719 2.87436L11.5951 2.40037C11.2659 1.41192 10.3404 0.745598 9.29859 0.746889L9.30045 2.24689ZM10.1717 2.87375L10.6236 4.23432L12.0471 3.76154L11.5953 2.40098L10.1717 2.87375Z" fill="#92979E"/>
</svg>
