<svg width="24" height="24" viewBox="0 0 24 24" fill="none" xmlns="http://www.w3.org/2000/svg">
<path d="M19.0021 7.99818H15.0004C14.4482 7.99818 14 7.54999 14 6.99776V2.99609" stroke="#2E1066" stroke-width="1.5" stroke-linecap="round" stroke-linejoin="round"/>
<path d="M19.0021 7.99818H15.0004C14.4482 7.99818 14 7.54999 14 6.99776V2.99609" stroke="#410F9E" stroke-width="1.5" stroke-linecap="round" stroke-linejoin="round"/>
<path d="M19.0021 7.99818H15.0004C14.4482 7.99818 14 7.54999 14 6.99776V2.99609" stroke="#453888" stroke-width="1.5" stroke-linecap="round" stroke-linejoin="round"/>
<path d="M19.0021 7.99818H15.0004C14.4482 7.99818 14 7.54999 14 6.99776V2.99609" stroke="#5946D7" stroke-width="1.5" stroke-linecap="round" stroke-linejoin="round"/>
<path d="M19.0021 7.99818H15.0004C14.4482 7.99818 14 7.54999 14 6.99776V2.99609" stroke="#6B59CC" stroke-width="1.5" stroke-linecap="round" stroke-linejoin="round"/>
<path d="M10.9986 21.0036H6.99693C5.89147 21.0036 4.99609 20.1082 4.99609 19.0028V4.99693C4.99609 3.89147 5.89147 2.99609 6.99693 2.99609H14.1709C14.7021 2.99609 15.2113 3.20718 15.5865 3.58234L18.4157 6.41152C18.7908 6.78667 19.0019 7.29588 19.0019 7.82711V13.0003" stroke="#2E1066" stroke-width="1.5" stroke-linecap="round" stroke-linejoin="round"/>
<path d="M10.9986 21.0036H6.99693C5.89147 21.0036 4.99609 20.1082 4.99609 19.0028V4.99693C4.99609 3.89147 5.89147 2.99609 6.99693 2.99609H14.1709C14.7021 2.99609 15.2113 3.20718 15.5865 3.58234L18.4157 6.41152C18.7908 6.78667 19.0019 7.29588 19.0019 7.82711V13.0003" stroke="#410F9E" stroke-width="1.5" stroke-linecap="round" stroke-linejoin="round"/>
<path d="M10.9986 21.0036H6.99693C5.89147 21.0036 4.99609 20.1082 4.99609 19.0028V4.99693C4.99609 3.89147 5.89147 2.99609 6.99693 2.99609H14.1709C14.7021 2.99609 15.2113 3.20718 15.5865 3.58234L18.4157 6.41152C18.7908 6.78667 19.0019 7.29588 19.0019 7.82711V13.0003" stroke="#453888" stroke-width="1.5" stroke-linecap="round" stroke-linejoin="round"/>
<path d="M10.9986 21.0036H6.99693C5.89147 21.0036 4.99609 20.1082 4.99609 19.0028V4.99693C4.99609 3.89147 5.89147 2.99609 6.99693 2.99609H14.1709C14.7021 2.99609 15.2113 3.20718 15.5865 3.58234L18.4157 6.41152C18.7908 6.78667 19.0019 7.29588 19.0019 7.82711V13.0003" stroke="#5946D7" stroke-width="1.5" stroke-linecap="round" stroke-linejoin="round"/>
<path d="M10.9986 21.0036H6.99693C5.89147 21.0036 4.99609 20.1082 4.99609 19.0028V4.99693C4.99609 3.89147 5.89147 2.99609 6.99693 2.99609H14.1709C14.7021 2.99609 15.2113 3.20718 15.5865 3.58234L18.4157 6.41152C18.7908 6.78667 19.0019 7.29588 19.0019 7.82711V13.0003" stroke="#6B59CC" stroke-width="1.5" stroke-linecap="round" stroke-linejoin="round"/>
<path d="M15 21.0039L19.0017 17.0022" stroke="#2E1066" stroke-width="1.5" stroke-linecap="round" stroke-linejoin="round"/>
<path d="M15 21.0039L19.0017 17.0022" stroke="#410F9E" stroke-width="1.5" stroke-linecap="round" stroke-linejoin="round"/>
<path d="M15 21.0039L19.0017 17.0022" stroke="#453888" stroke-width="1.5" stroke-linecap="round" stroke-linejoin="round"/>
<path d="M15 21.0039L19.0017 17.0022" stroke="#5946D7" stroke-width="1.5" stroke-linecap="round" stroke-linejoin="round"/>
<path d="M15 21.0039L19.0017 17.0022" stroke="#6B59CC" stroke-width="1.5" stroke-linecap="round" stroke-linejoin="round"/>
<path d="M15 17.0022H19.0017V21.0039" stroke="#2E1066" stroke-width="1.5" stroke-linecap="round" stroke-linejoin="round"/>
<path d="M15 17.0022H19.0017V21.0039" stroke="#410F9E" stroke-width="1.5" stroke-linecap="round" stroke-linejoin="round"/>
<path d="M15 17.0022H19.0017V21.0039" stroke="#453888" stroke-width="1.5" stroke-linecap="round" stroke-linejoin="round"/>
<path d="M15 17.0022H19.0017V21.0039" stroke="#5946D7" stroke-width="1.5" stroke-linecap="round" stroke-linejoin="round"/>
<path d="M15 17.0022H19.0017V21.0039" stroke="#6B59CC" stroke-width="1.5" stroke-linecap="round" stroke-linejoin="round"/>
</svg>
