<svg xmlns="http://www.w3.org/2000/svg" fill="none" viewBox="0 0 32 32" id="catalog-2"><path opacity=".1" d="M5.5 12l3.5-.5L11 9h7v19.5l-5.5-.5L9 22.5H5.5V12z" fill="#5946D7"></path><path d="M1.333 12v10.667M16 4v5.333M12 4h8" stroke="#5946D7" stroke-width="2" stroke-linecap="round" stroke-linejoin="round"></path><path clip-rule="evenodd" d="M26.667 12v2.667H24l-2.667-5.334H10.667L8 12H5.333v10.667h4l2.299 4.596c.225.452.687.737 1.192.737h8.51c.735 0 1.333-.597 1.333-1.333v-4h4v2.666h2.666c.736 0 1.334-.597 1.334-1.333V13.333c0-.736-.598-1.333-1.334-1.333h-2.666z" stroke="#5946D7" stroke-width="2" stroke-linecap="round" stroke-linejoin="round"></path><path d="M5.333 17.333h-4" stroke="#5946D7" stroke-width="2" stroke-linecap="round" stroke-linejoin="round"></path></svg>