<svg xmlns="http://www.w3.org/2000/svg" fill="none" viewBox="0 0 32 32" id="catalog-6"><path d="M9 26L3.5 14.5V14L9 11.5l7-1v14L9 26z" fill="#5946D7" fill-opacity=".1"></path><path d="M10 17.333l6 12" stroke="#5946D7" stroke-width="2" stroke-linecap="round" stroke-linejoin="round"></path><path clip-rule="evenodd" d="M28.385 15.297L23.3 25.467a1.316 1.316 0 01-1.719.621 13.72 13.72 0 00-5.717-1.235 13.72 13.72 0 00-5.717 1.235 1.317 1.317 0 01-1.72-.621l-5.084-10.17c-.323-.644-.083-1.448.557-1.776 3.747-1.92 7.853-2.853 11.963-2.854 4.109.001 8.216.933 11.964 2.854.64.33.88 1.132.558 1.776z" stroke="#5946D7" stroke-width="2" stroke-linecap="round" stroke-linejoin="round"></path><path d="M16 6.667c0-.222-.02-.444-.06-.663M16.06 6.004a3.69 3.69 0 00-.06.663M23.45 3.839a4.168 4.168 0 00-.526-.411M19.175 2.817a3.8 3.8 0 00-.702.263M9.076 3.428c-.184.121-.36.259-.526.41M12.825 2.817c.243.063.475.154.702.263M16 17.333V16M16 10.667V12" stroke="#5946D7" stroke-width="2" stroke-linecap="round" stroke-linejoin="round"></path></svg>