<svg width="20" height="20" viewBox="0 0 20 20" fill="none" xmlns="http://www.w3.org/2000/svg">
<path fill-rule="evenodd" clip-rule="evenodd" d="M4.16732 10.8334C3.7069 10.8334 3.33398 10.4605 3.33398 10.0001C3.33398 9.53966 3.7069 9.16675 4.16732 9.16675C4.62773 9.16675 5.00065 9.53966 5.00065 10.0001C5.00065 10.4605 4.62773 10.8334 4.16732 10.8334Z" fill="white" stroke="white" stroke-width="1.5" stroke-linecap="round" stroke-linejoin="round"/>
<path fill-rule="evenodd" clip-rule="evenodd" d="M10.0013 10.8334C9.54089 10.8334 9.16797 10.4605 9.16797 10.0001C9.16797 9.53966 9.54089 9.16675 10.0013 9.16675C10.4617 9.16675 10.8346 9.53966 10.8346 10.0001C10.8346 10.4605 10.4617 10.8334 10.0013 10.8334Z" fill="white" stroke="white" stroke-width="1.5" stroke-linecap="round" stroke-linejoin="round"/>
<path fill-rule="evenodd" clip-rule="evenodd" d="M15.8333 10.8334C15.3729 10.8334 15 10.4605 15 10.0001C15 9.53966 15.3729 9.16675 15.8333 9.16675C16.2937 9.16675 16.6667 9.53966 16.6667 10.0001C16.6667 10.4605 16.2937 10.8334 15.8333 10.8334Z" fill="white" stroke="white" stroke-width="1.5" stroke-linecap="round" stroke-linejoin="round"/>
<path fill-rule="evenodd" clip-rule="evenodd" d="M4.16732 16.6667C3.7069 16.6667 3.33398 16.2937 3.33398 15.8333C3.33398 15.3729 3.7069 15 4.16732 15C4.62773 15 5.00065 15.3729 5.00065 15.8333C5.00065 16.2937 4.62773 16.6667 4.16732 16.6667Z" fill="white" stroke="white" stroke-width="1.5" stroke-linecap="round" stroke-linejoin="round"/>
<path fill-rule="evenodd" clip-rule="evenodd" d="M10.0013 16.6667C9.54089 16.6667 9.16797 16.2937 9.16797 15.8333C9.16797 15.3729 9.54089 15 10.0013 15C10.4617 15 10.8346 15.3729 10.8346 15.8333C10.8346 16.2937 10.4617 16.6667 10.0013 16.6667Z" fill="white" stroke="white" stroke-width="1.5" stroke-linecap="round" stroke-linejoin="round"/>
<path fill-rule="evenodd" clip-rule="evenodd" d="M15.8333 16.6667C15.3729 16.6667 15 16.2937 15 15.8333C15 15.3729 15.3729 15 15.8333 15C16.2937 15 16.6667 15.3729 16.6667 15.8333C16.6667 16.2937 16.2937 16.6667 15.8333 16.6667Z" fill="white" stroke="white" stroke-width="1.5" stroke-linecap="round" stroke-linejoin="round"/>
<path fill-rule="evenodd" clip-rule="evenodd" d="M4.16732 5.00004C3.7069 5.00004 3.33398 4.62712 3.33398 4.16671C3.33398 3.70629 3.7069 3.33337 4.16732 3.33337C4.62773 3.33337 5.00065 3.70629 5.00065 4.16671C5.00065 4.62712 4.62773 5.00004 4.16732 5.00004Z" fill="white" stroke="white" stroke-width="1.5" stroke-linecap="round" stroke-linejoin="round"/>
<path fill-rule="evenodd" clip-rule="evenodd" d="M10.0013 5.00004C9.54089 5.00004 9.16797 4.62712 9.16797 4.16671C9.16797 3.70629 9.54089 3.33337 10.0013 3.33337C10.4617 3.33337 10.8346 3.70629 10.8346 4.16671C10.8346 4.62712 10.4617 5.00004 10.0013 5.00004Z" fill="white" stroke="white" stroke-width="1.5" stroke-linecap="round" stroke-linejoin="round"/>
<path fill-rule="evenodd" clip-rule="evenodd" d="M15.8333 5.00004C15.3729 5.00004 15 4.62712 15 4.16671C15 3.70629 15.3729 3.33337 15.8333 3.33337C16.2937 3.33337 16.6667 3.70629 16.6667 4.16671C16.6667 4.62712 16.2937 5.00004 15.8333 5.00004Z" fill="white" stroke="white" stroke-width="1.5" stroke-linecap="round" stroke-linejoin="round"/>
</svg>
