<svg width="20" height="20" viewBox="0 0 20 20" fill="none" xmlns="http://www.w3.org/2000/svg">
<path fill-rule="evenodd" clip-rule="evenodd" d="M10 17.5V17.5C5.8575 17.5 2.5 14.1425 2.5 10V10C2.5 5.8575 5.8575 2.5 10 2.5V2.5C14.1425 2.5 17.5 5.8575 17.5 10V10C17.5 14.1425 14.1425 17.5 10 17.5Z" stroke="#7A7680" stroke-width="1.5" stroke-linecap="round" stroke-linejoin="round"/>
<path d="M9.99984 14.1667V10H9.1665" stroke="#7A7680" stroke-width="1.5" stroke-linecap="round" stroke-linejoin="round"/>
<path d="M9.79084 6.66665C9.67584 6.66665 9.5825 6.75998 9.58334 6.87498C9.58334 6.98998 9.67667 7.08331 9.79167 7.08331C9.90667 7.08331 10 6.98998 10 6.87498C10 6.75998 9.90667 6.66665 9.79084 6.66665" stroke="#7A7680" stroke-width="1.5" stroke-linecap="round" stroke-linejoin="round"/>
</svg>
