<svg xmlns="http://www.w3.org/2000/svg" width="24px" height="24px" fill="none" viewBox="0 0 24 24" id="exit"><path opacity=".4" d="M2 6.447C2 3.996 4.03 2 6.525 2h4.96C13.976 2 16 3.99 16 6.437v11.116C16 20.005 13.97 22 11.474 22H6.515C4.025 22 2 20.01 2 17.563V6.447z" fill="#F11A22"></path><path d="M21.779 11.454l-2.846-2.909a.736.736 0 00-1.06.002.785.785 0 00.002 1.09l1.559 1.592H9.549a.76.76 0 00-.75.77c0 .426.336.77.75.77h9.885l-1.56 1.593a.785.785 0 00-.001 1.09.74.74 0 00.531.226.74.74 0 00.53-.225l2.845-2.908a.783.783 0 000-1.09z" fill="#F11A22"></path></svg>