<svg width="48px" height="48px" viewBox="0 0 48 48" fill="none" xmlns="http://www.w3.org/2000/svg">
<path fill-rule="evenodd" clip-rule="evenodd" d="M24 6C16.26 6 10 12.26 10 20C10 29.1644 20.665 39.0906 23.3781 41.4675C23.7372 41.7821 24.2628 41.7821 24.6219 41.4675C27.335 39.0906 38 29.1644 38 20C38 12.26 31.74 6 24 6ZM24 26C27.3137 26 30 23.3137 30 20C30 16.6863 27.3137 14 24 14C20.6863 14 18 16.6863 18 20C18 23.3137 20.6863 26 24 26Z" fill="#2E1066"/>
<path fill-rule="evenodd" clip-rule="evenodd" d="M24 6C16.26 6 10 12.26 10 20C10 29.1644 20.665 39.0906 23.3781 41.4675C23.7372 41.7821 24.2628 41.7821 24.6219 41.4675C27.335 39.0906 38 29.1644 38 20C38 12.26 31.74 6 24 6ZM24 26C27.3137 26 30 23.3137 30 20C30 16.6863 27.3137 14 24 14C20.6863 14 18 16.6863 18 20C18 23.3137 20.6863 26 24 26Z" fill="#410F9E"/>
<path fill-rule="evenodd" clip-rule="evenodd" d="M24 6C16.26 6 10 12.26 10 20C10 29.1644 20.665 39.0906 23.3781 41.4675C23.7372 41.7821 24.2628 41.7821 24.6219 41.4675C27.335 39.0906 38 29.1644 38 20C38 12.26 31.74 6 24 6ZM24 26C27.3137 26 30 23.3137 30 20C30 16.6863 27.3137 14 24 14C20.6863 14 18 16.6863 18 20C18 23.3137 20.6863 26 24 26Z" fill="#453888"/>
<path fill-rule="evenodd" clip-rule="evenodd" d="M24 6C16.26 6 10 12.26 10 20C10 29.1644 20.665 39.0906 23.3781 41.4675C23.7372 41.7821 24.2628 41.7821 24.6219 41.4675C27.335 39.0906 38 29.1644 38 20C38 12.26 31.74 6 24 6ZM24 26C27.3137 26 30 23.3137 30 20C30 16.6863 27.3137 14 24 14C20.6863 14 18 16.6863 18 20C18 23.3137 20.6863 26 24 26Z" fill="#5946D7"/>
<path fill-rule="evenodd" clip-rule="evenodd" d="M24 6C16.26 6 10 12.26 10 20C10 29.1644 20.665 39.0906 23.3781 41.4675C23.7372 41.7821 24.2628 41.7821 24.6219 41.4675C27.335 39.0906 38 29.1644 38 20C38 12.26 31.74 6 24 6ZM24 26C27.3137 26 30 23.3137 30 20C30 16.6863 27.3137 14 24 14C20.6863 14 18 16.6863 18 20C18 23.3137 20.6863 26 24 26Z" fill="#6B59CC"/>
<circle cx="24" cy="20" r="6" fill="white"/>
</svg>
