<svg width="24" height="24" viewBox="0 0 24 24" fill="none" xmlns="http://www.w3.org/2000/svg">
<path d="M17.1474 7.55925C17.8375 7.56625 18.7969 7.56925 19.6108 7.56625C20.0276 7.56525 20.2395 7.06225 19.9504 6.75925C18.9048 5.66125 17.0345 3.69625 15.9643 2.57225C15.6682 2.26125 15.1504 2.47525 15.1504 2.90625V5.54225C15.1504 6.64825 16.0524 7.55925 17.1474 7.55925Z" fill="#2E1066"/>
<path d="M17.1474 7.55925C17.8375 7.56625 18.7969 7.56925 19.6108 7.56625C20.0276 7.56525 20.2395 7.06225 19.9504 6.75925C18.9048 5.66125 17.0345 3.69625 15.9643 2.57225C15.6682 2.26125 15.1504 2.47525 15.1504 2.90625V5.54225C15.1504 6.64825 16.0524 7.55925 17.1474 7.55925Z" fill="#410F9E"/>
<path d="M17.1474 7.55925C17.8375 7.56625 18.7969 7.56925 19.6108 7.56625C20.0276 7.56525 20.2395 7.06225 19.9504 6.75925C18.9048 5.66125 17.0345 3.69625 15.9643 2.57225C15.6682 2.26125 15.1504 2.47525 15.1504 2.90625V5.54225C15.1504 6.64825 16.0524 7.55925 17.1474 7.55925Z" fill="#453888"/>
<path d="M17.1474 7.55925C17.8375 7.56625 18.7969 7.56925 19.6108 7.56625C20.0276 7.56525 20.2395 7.06225 19.9504 6.75925C18.9048 5.66125 17.0345 3.69625 15.9643 2.57225C15.6682 2.26125 15.1504 2.47525 15.1504 2.90625V5.54225C15.1504 6.64825 16.0524 7.55925 17.1474 7.55925Z" fill="#5946D7"/>
<path d="M17.1474 7.55925C17.8375 7.56625 18.7969 7.56925 19.6108 7.56625C20.0276 7.56525 20.2395 7.06225 19.9504 6.75925C18.9048 5.66125 17.0345 3.69625 15.9643 2.57225C15.6682 2.26125 15.1504 2.47525 15.1504 2.90625V5.54225C15.1504 6.64825 16.0524 7.55925 17.1474 7.55925Z" fill="#6B59CC"/>
<g opacity="0.4">
<path fill-rule="evenodd" clip-rule="evenodd" d="M20.0545 9.02C19.6287 9.02 19.1238 9.03 18.8168 9.03C18.3614 9.03 17.7673 9.02 17.0149 9.02C15.203 9.01 13.7079 7.51 13.7079 5.68V2.46C13.7079 2.21 13.5099 2 13.2525 2H7.96535C5.5 2 3.5 4.03 3.5 6.51V17.29C3.5 19.89 5.59901 22 8.17327 22H16.0545C18.5099 22 20.5 19.99 20.5 17.51V9.47C20.5 9.22 20.302 9.02 20.0545 9.02Z" fill="#2E1066"/>
<path fill-rule="evenodd" clip-rule="evenodd" d="M20.0545 9.02C19.6287 9.02 19.1238 9.03 18.8168 9.03C18.3614 9.03 17.7673 9.02 17.0149 9.02C15.203 9.01 13.7079 7.51 13.7079 5.68V2.46C13.7079 2.21 13.5099 2 13.2525 2H7.96535C5.5 2 3.5 4.03 3.5 6.51V17.29C3.5 19.89 5.59901 22 8.17327 22H16.0545C18.5099 22 20.5 19.99 20.5 17.51V9.47C20.5 9.22 20.302 9.02 20.0545 9.02Z" fill="#410F9E"/>
<path fill-rule="evenodd" clip-rule="evenodd" d="M20.0545 9.02C19.6287 9.02 19.1238 9.03 18.8168 9.03C18.3614 9.03 17.7673 9.02 17.0149 9.02C15.203 9.01 13.7079 7.51 13.7079 5.68V2.46C13.7079 2.21 13.5099 2 13.2525 2H7.96535C5.5 2 3.5 4.03 3.5 6.51V17.29C3.5 19.89 5.59901 22 8.17327 22H16.0545C18.5099 22 20.5 19.99 20.5 17.51V9.47C20.5 9.22 20.302 9.02 20.0545 9.02Z" fill="#453888"/>
<path fill-rule="evenodd" clip-rule="evenodd" d="M20.0545 9.02C19.6287 9.02 19.1238 9.03 18.8168 9.03C18.3614 9.03 17.7673 9.02 17.0149 9.02C15.203 9.01 13.7079 7.51 13.7079 5.68V2.46C13.7079 2.21 13.5099 2 13.2525 2H7.96535C5.5 2 3.5 4.03 3.5 6.51V17.29C3.5 19.89 5.59901 22 8.17327 22H16.0545C18.5099 22 20.5 19.99 20.5 17.51V9.47C20.5 9.22 20.302 9.02 20.0545 9.02Z" fill="#5946D7"/>
<path fill-rule="evenodd" clip-rule="evenodd" d="M20.0545 9.02C19.6287 9.02 19.1238 9.03 18.8168 9.03C18.3614 9.03 17.7673 9.02 17.0149 9.02C15.203 9.01 13.7079 7.51 13.7079 5.68V2.46C13.7079 2.21 13.5099 2 13.2525 2H7.96535C5.5 2 3.5 4.03 3.5 6.51V17.29C3.5 19.89 5.59901 22 8.17327 22H16.0545C18.5099 22 20.5 19.99 20.5 17.51V9.47C20.5 9.22 20.302 9.02 20.0545 9.02Z" fill="#6B59CC"/>
</g>
<path fill-rule="evenodd" clip-rule="evenodd" d="M14.3123 16.3904H8.92617C8.52023 16.3904 8.18359 16.0504 8.18359 15.6404C8.18359 15.2304 8.52023 14.9004 8.92617 14.9004H14.3123C14.7182 14.9004 15.0549 15.2304 15.0549 15.6404C15.0549 16.0504 14.7182 16.3904 14.3123 16.3904Z" fill="#2E1066"/>
<path fill-rule="evenodd" clip-rule="evenodd" d="M14.3123 16.3904H8.92617C8.52023 16.3904 8.18359 16.0504 8.18359 15.6404C8.18359 15.2304 8.52023 14.9004 8.92617 14.9004H14.3123C14.7182 14.9004 15.0549 15.2304 15.0549 15.6404C15.0549 16.0504 14.7182 16.3904 14.3123 16.3904Z" fill="#410F9E"/>
<path fill-rule="evenodd" clip-rule="evenodd" d="M14.3123 16.3904H8.92617C8.52023 16.3904 8.18359 16.0504 8.18359 15.6404C8.18359 15.2304 8.52023 14.9004 8.92617 14.9004H14.3123C14.7182 14.9004 15.0549 15.2304 15.0549 15.6404C15.0549 16.0504 14.7182 16.3904 14.3123 16.3904Z" fill="#453888"/>
<path fill-rule="evenodd" clip-rule="evenodd" d="M14.3123 16.3904H8.92617C8.52023 16.3904 8.18359 16.0504 8.18359 15.6404C8.18359 15.2304 8.52023 14.9004 8.92617 14.9004H14.3123C14.7182 14.9004 15.0549 15.2304 15.0549 15.6404C15.0549 16.0504 14.7182 16.3904 14.3123 16.3904Z" fill="#5946D7"/>
<path fill-rule="evenodd" clip-rule="evenodd" d="M14.3123 16.3904H8.92617C8.52023 16.3904 8.18359 16.0504 8.18359 15.6404C8.18359 15.2304 8.52023 14.9004 8.92617 14.9004H14.3123C14.7182 14.9004 15.0549 15.2304 15.0549 15.6404C15.0549 16.0504 14.7182 16.3904 14.3123 16.3904Z" fill="#6B59CC"/>
<path d="M14.3123 16.3904H8.92617C8.52023 16.3904 8.18359 16.0504 8.18359 15.6404C8.18359 15.2304 8.52023 14.9004 8.92617 14.9004H14.3123C14.7182 14.9004 15.0549 15.2304 15.0549 15.6404C15.0549 16.0504 14.7182 16.3904 14.3123 16.3904" stroke="#2E1066" stroke-width="0.5"/>
<path d="M14.3123 16.3904H8.92617C8.52023 16.3904 8.18359 16.0504 8.18359 15.6404C8.18359 15.2304 8.52023 14.9004 8.92617 14.9004H14.3123C14.7182 14.9004 15.0549 15.2304 15.0549 15.6404C15.0549 16.0504 14.7182 16.3904 14.3123 16.3904" stroke="#410F9E" stroke-width="0.5"/>
<path d="M14.3123 16.3904H8.92617C8.52023 16.3904 8.18359 16.0504 8.18359 15.6404C8.18359 15.2304 8.52023 14.9004 8.92617 14.9004H14.3123C14.7182 14.9004 15.0549 15.2304 15.0549 15.6404C15.0549 16.0504 14.7182 16.3904 14.3123 16.3904" stroke="#453888" stroke-width="0.5"/>
<path d="M14.3123 16.3904H8.92617C8.52023 16.3904 8.18359 16.0504 8.18359 15.6404C8.18359 15.2304 8.52023 14.9004 8.92617 14.9004H14.3123C14.7182 14.9004 15.0549 15.2304 15.0549 15.6404C15.0549 16.0504 14.7182 16.3904 14.3123 16.3904" stroke="#5946D7" stroke-width="0.5"/>
<path d="M14.3123 16.3904H8.92617C8.52023 16.3904 8.18359 16.0504 8.18359 15.6404C8.18359 15.2304 8.52023 14.9004 8.92617 14.9004H14.3123C14.7182 14.9004 15.0549 15.2304 15.0549 15.6404C15.0549 16.0504 14.7182 16.3904 14.3123 16.3904" stroke="#6B59CC" stroke-width="0.5"/>
<path fill-rule="evenodd" clip-rule="evenodd" d="M8.92617 9.90039H12.2727C12.6786 9.90039 13.0153 10.2404 13.0153 10.6504C13.0153 11.0604 12.6786 11.3904 12.2727 11.3904H8.92617C8.52023 11.3904 8.18359 11.0604 8.18359 10.6504C8.18359 10.2404 8.52023 9.90039 8.92617 9.90039Z" fill="#2E1066"/>
<path fill-rule="evenodd" clip-rule="evenodd" d="M8.92617 9.90039H12.2727C12.6786 9.90039 13.0153 10.2404 13.0153 10.6504C13.0153 11.0604 12.6786 11.3904 12.2727 11.3904H8.92617C8.52023 11.3904 8.18359 11.0604 8.18359 10.6504C8.18359 10.2404 8.52023 9.90039 8.92617 9.90039Z" fill="#410F9E"/>
<path fill-rule="evenodd" clip-rule="evenodd" d="M8.92617 9.90039H12.2727C12.6786 9.90039 13.0153 10.2404 13.0153 10.6504C13.0153 11.0604 12.6786 11.3904 12.2727 11.3904H8.92617C8.52023 11.3904 8.18359 11.0604 8.18359 10.6504C8.18359 10.2404 8.52023 9.90039 8.92617 9.90039Z" fill="#453888"/>
<path fill-rule="evenodd" clip-rule="evenodd" d="M8.92617 9.90039H12.2727C12.6786 9.90039 13.0153 10.2404 13.0153 10.6504C13.0153 11.0604 12.6786 11.3904 12.2727 11.3904H8.92617C8.52023 11.3904 8.18359 11.0604 8.18359 10.6504C8.18359 10.2404 8.52023 9.90039 8.92617 9.90039Z" fill="#5946D7"/>
<path fill-rule="evenodd" clip-rule="evenodd" d="M8.92617 9.90039H12.2727C12.6786 9.90039 13.0153 10.2404 13.0153 10.6504C13.0153 11.0604 12.6786 11.3904 12.2727 11.3904H8.92617C8.52023 11.3904 8.18359 11.0604 8.18359 10.6504C8.18359 10.2404 8.52023 9.90039 8.92617 9.90039Z" fill="#6B59CC"/>
<path d="M8.92617 9.90039H12.2727C12.6786 9.90039 13.0153 10.2404 13.0153 10.6504C13.0153 11.0604 12.6786 11.3904 12.2727 11.3904H8.92617C8.52023 11.3904 8.18359 11.0604 8.18359 10.6504C8.18359 10.2404 8.52023 9.90039 8.92617 9.90039" stroke="#2E1066" stroke-width="0.5"/>
<path d="M8.92617 9.90039H12.2727C12.6786 9.90039 13.0153 10.2404 13.0153 10.6504C13.0153 11.0604 12.6786 11.3904 12.2727 11.3904H8.92617C8.52023 11.3904 8.18359 11.0604 8.18359 10.6504C8.18359 10.2404 8.52023 9.90039 8.92617 9.90039" stroke="#410F9E" stroke-width="0.5"/>
<path d="M8.92617 9.90039H12.2727C12.6786 9.90039 13.0153 10.2404 13.0153 10.6504C13.0153 11.0604 12.6786 11.3904 12.2727 11.3904H8.92617C8.52023 11.3904 8.18359 11.0604 8.18359 10.6504C8.18359 10.2404 8.52023 9.90039 8.92617 9.90039" stroke="#453888" stroke-width="0.5"/>
<path d="M8.92617 9.90039H12.2727C12.6786 9.90039 13.0153 10.2404 13.0153 10.6504C13.0153 11.0604 12.6786 11.3904 12.2727 11.3904H8.92617C8.52023 11.3904 8.18359 11.0604 8.18359 10.6504C8.18359 10.2404 8.52023 9.90039 8.92617 9.90039" stroke="#5946D7" stroke-width="0.5"/>
<path d="M8.92617 9.90039H12.2727C12.6786 9.90039 13.0153 10.2404 13.0153 10.6504C13.0153 11.0604 12.6786 11.3904 12.2727 11.3904H8.92617C8.52023 11.3904 8.18359 11.0604 8.18359 10.6504C8.18359 10.2404 8.52023 9.90039 8.92617 9.90039" stroke="#6B59CC" stroke-width="0.5"/>
</svg>
