<svg xmlns="http://www.w3.org/2000/svg" fill="none" viewBox="0 0 32 32" id="catalog-5"><path d="M5.157 16.472l1.886-1.885a2.666 2.666 0 013.77 0l6.6 6.6a2.666 2.666 0 010 3.77l-1.885 1.886a2.666 2.666 0 01-3.77 0l-6.6-6.6a2.666 2.666 0 010-3.771z" fill="#5946D7" fill-opacity=".1" stroke="#5946D7" stroke-width="2" stroke-linecap="round" stroke-linejoin="round"></path><path d="M6.093 21.187l-2.826 2.826M8.347 29.08l2.826-2.827" stroke="#5946D7" stroke-width="2" stroke-linecap="round" stroke-linejoin="round"></path><path fill-rule="evenodd" clip-rule="evenodd" d="M22.128 5.157l-1.885-1.885a1.332 1.332 0 00-1.886 0l-1.494 1.495c-.251.25-.391.59-.391.942v3.22l-1.885 1.884a1.332 1.332 0 000 1.886l4.714 4.714a1.332 1.332 0 001.886 0l1.885-1.885h3.219c.353 0 .693-.14.942-.39l1.495-1.495a1.332 1.332 0 000-1.886l-1.885-1.885" fill="#5946D7" fill-opacity=".1"></path><path d="M22.128 5.157l-1.885-1.885a1.332 1.332 0 00-1.886 0l-1.494 1.495c-.251.25-.391.59-.391.942v3.22l-1.885 1.884a1.332 1.332 0 000 1.886l4.714 4.714a1.332 1.332 0 001.886 0l1.885-1.885h3.219c.353 0 .693-.14.942-.39l1.495-1.495a1.332 1.332 0 000-1.886l-1.885-1.885M20.333 13L19 11.667M21.333 29.333V28M29.333 21.333H28M28 28l-1.333-1.333M10.667 2.667V4M2.667 10.667H4M4 4l1.333 1.333M10 19.334L12.667 22" stroke="#5946D7" stroke-width="2" stroke-linecap="round" stroke-linejoin="round"></path><path d="M28.728 7.987L25.9 10.815a1.332 1.332 0 01-1.885 0l-2.83-2.828a1.332 1.332 0 010-1.886l2.828-2.828" stroke="#5946D7" stroke-width="2" stroke-linecap="round" stroke-linejoin="round"></path></svg>
