<svg xmlns="http://www.w3.org/2000/svg" fill="none" viewBox="0 0 32 32" id="catalog-11"><path fill-rule="evenodd" clip-rule="evenodd" d="M18.732 21.436v0a2.919 2.919 0 01-3.399-2.879v-5.114a2.918 2.918 0 013.399-2.878v0A5.51 5.51 0 0123.336 16v0a5.51 5.51 0 01-4.604 5.436v0z" fill="#5946D7" fill-opacity=".1" stroke="#5946D7" stroke-width="2" stroke-linecap="round" stroke-linejoin="round"></path><path d="M9.33 13.332l2.668-.667M9.33 16.667L11.999 16" stroke="#5946D7" stroke-width="2" stroke-linecap="round" stroke-linejoin="round"></path><path clip-rule="evenodd" d="M16 28.005v0C9.37 28.005 3.995 22.63 3.995 16v0C3.995 9.37 9.37 3.995 16 3.995v0c6.63 0 12.005 5.375 12.005 12.005v0c0 6.63-5.375 12.005-12.005 12.005v0z" stroke="#5946D7" stroke-width="2" stroke-linecap="round" stroke-linejoin="round"></path><path d="M9.33 20.002l2.668-.667" stroke="#5946D7" stroke-width="2" stroke-linecap="round" stroke-linejoin="round"></path></svg>