<svg width="14" height="14" viewBox="0 0 14 14" fill="none" xmlns="http://www.w3.org/2000/svg">
<path d="M12.8025 5.35394C12.7658 5.24594 12.6984 5.15105 12.6084 5.08097C12.5184 5.01089 12.4099 4.9687 12.2962 4.9596L8.9706 4.69535L7.53151 1.50977C7.48568 1.40717 7.41114 1.32002 7.31687 1.25885C7.22261 1.19768 7.11266 1.1651 7.00029 1.16504C6.88791 1.16498 6.77793 1.19744 6.6836 1.25851C6.58926 1.31957 6.51462 1.40664 6.46868 1.50919L5.0296 4.69535L1.70401 4.9596C1.59228 4.96846 1.48546 5.00931 1.39634 5.07728C1.30721 5.14525 1.23956 5.23746 1.20147 5.34287C1.16338 5.44828 1.15646 5.56244 1.18155 5.67168C1.20664 5.78092 1.26266 5.88062 1.34293 5.95885L3.80051 8.3546L2.93135 12.1183C2.90496 12.2322 2.91341 12.3514 2.95562 12.4605C2.99784 12.5695 3.07185 12.6634 3.16806 12.7299C3.26428 12.7963 3.37825 12.8323 3.49519 12.8332C3.61213 12.8341 3.72663 12.7999 3.82385 12.7349L7.0001 10.6174L10.1763 12.7349C10.2757 12.8008 10.3929 12.8348 10.5121 12.8322C10.6314 12.8296 10.747 12.7905 10.8433 12.7202C10.9397 12.65 11.0122 12.5519 11.0512 12.4391C11.0902 12.3264 11.0937 12.2045 11.0613 12.0897L9.99435 8.35635L12.6403 5.97519C12.8136 5.81885 12.8772 5.57502 12.8025 5.35394V5.35394Z" fill="#EF9002"/>
</svg>
