<svg width="20" height="20" viewBox="0 0 20 20" fill="#7A7680" xmlns="http://www.w3.org/2000/svg">
<path d="M5.74784 5.41687C5.74784 5.00265 5.41205 4.66687 4.99784 4.66687C4.58362 4.66687 4.24784 5.00265 4.24784 5.41687H5.74784ZM15.752 5.0002C15.752 4.58599 15.4162 4.2502 15.002 4.2502C14.5878 4.2502 14.252 4.58599 14.252 5.0002H15.752ZM12.4173 8.33284C12.4173 7.91862 12.0815 7.58284 11.6673 7.58284C11.2531 7.58284 10.9173 7.91862 10.9173 8.33284H12.4173ZM10.9173 14.1686C10.9173 14.5828 11.2531 14.9186 11.6673 14.9186C12.0815 14.9186 12.4173 14.5828 12.4173 14.1686H10.9173ZM9.08256 8.33284C9.08256 7.91862 8.74677 7.58284 8.33256 7.58284C7.91834 7.58284 7.58256 7.91862 7.58256 8.33284H9.08256ZM7.58256 14.1686C7.58256 14.5828 7.91834 14.9186 8.33256 14.9186C8.74677 14.9186 9.08256 14.5828 9.08256 14.1686H7.58256ZM3.74731 4.24811C3.3331 4.24811 2.99731 4.5839 2.99731 4.99811C2.99731 5.41233 3.3331 5.74811 3.74731 5.74811V4.24811ZM16.2525 5.74811C16.6667 5.74811 17.0025 5.41233 17.0025 4.99811C17.0025 4.5839 16.6667 4.24811 16.2525 4.24811V5.74811ZM5.95368 4.76094C5.8227 5.1539 6.03507 5.57864 6.42803 5.70963C6.82098 5.84061 7.24572 5.62824 7.37671 5.23528L5.95368 4.76094ZM7.11872 3.63755L7.83023 3.87472L7.83029 3.87455L7.11872 3.63755ZM8.70104 2.49707L8.70087 3.24707H8.70104V2.49707ZM11.2988 2.49707L11.2988 3.24707L11.2997 3.24707L11.2988 2.49707ZM12.8828 3.63755L13.5946 3.40116L13.5944 3.40055L12.8828 3.63755ZM12.6229 5.2345C12.7534 5.6276 13.1779 5.84044 13.571 5.70989C13.9641 5.57933 14.177 5.15483 14.0464 4.76173L12.6229 5.2345ZM4.24784 5.41687V15.836H5.74784V5.41687H4.24784ZM4.24784 15.836C4.24784 17.171 5.33012 18.2533 6.6652 18.2533V16.7533C6.15855 16.7533 5.74784 16.3426 5.74784 15.836H4.24784ZM6.6652 18.2533H13.3346V16.7533H6.6652V18.2533ZM13.3346 18.2533C14.6697 18.2533 15.752 17.171 15.752 15.836H14.252C14.252 16.3426 13.8413 16.7533 13.3346 16.7533V18.2533ZM15.752 15.836V5.0002H14.252V15.836H15.752ZM10.9173 8.33284V14.1686H12.4173V8.33284H10.9173ZM7.58256 8.33284V14.1686H9.08256V8.33284H7.58256ZM3.74731 5.74811H16.2525V4.24811H3.74731V5.74811ZM7.37671 5.23528L7.83023 3.87472L6.40721 3.40038L5.95368 4.76094L7.37671 5.23528ZM7.83029 3.87455C7.95512 3.49977 8.30584 3.24698 8.70087 3.24707L8.70122 1.74707C7.66029 1.74682 6.73608 2.41295 6.40715 3.40055L7.83029 3.87455ZM8.70104 3.24707H11.2988V1.74707H8.70104V3.24707ZM11.2997 3.24707C11.6951 3.24658 12.0463 3.49945 12.1712 3.87455L13.5944 3.40055C13.2651 2.41211 12.3397 1.74578 11.2979 1.74707L11.2997 3.24707ZM12.171 3.87393L12.6229 5.2345L14.0464 4.76173L13.5946 3.40116L12.171 3.87393Z" />
</svg>
