<svg xmlns="http://www.w3.org/2000/svg" fill="none" viewBox="0 0 32 32" id="catalog-9"><path fill-rule="evenodd" clip-rule="evenodd" d="M25.428 6.572c5.207 5.207 5.207 13.65 0 18.856-5.207 5.207-13.65 5.207-18.856 0-5.207-5.207-5.207-13.65 0-18.856 5.207-5.207 13.65-5.207 18.856 0" fill="#5946D7" fill-opacity=".1"></path><path d="M25.428 6.572c5.207 5.207 5.207 13.65 0 18.856-5.207 5.207-13.65 5.207-18.856 0-5.207-5.207-5.207-13.65 0-18.856 5.207-5.207 13.65-5.207 18.856 0" stroke="#5946D7" stroke-width="2" stroke-linecap="round" stroke-linejoin="round"></path><path fill-rule="evenodd" clip-rule="evenodd" d="M22.6 9.4A9.333 9.333 0 119.4 22.6 9.333 9.333 0 1122.6 9.4" fill="#fff"></path><path d="M22.6 9.4A9.333 9.333 0 119.4 22.6 9.333 9.333 0 1122.6 9.4M16 13.333V6.667M16 25.333v-6.666M17.88 14.12L22.6 9.4M9.4 22.6l4.72-4.72M18.667 16h6.666M6.667 16h6.666M17.88 17.88l4.72 4.72M9.4 9.4l4.72 4.72" stroke="#5946D7" stroke-width="2" stroke-linecap="round" stroke-linejoin="round"></path><path fill-rule="evenodd" clip-rule="evenodd" d="M17.886 14.114a2.667 2.667 0 11-3.772 3.772 2.667 2.667 0 013.772-3.771" fill="#fff"></path><path d="M17.886 14.114a2.667 2.667 0 11-3.772 3.772 2.667 2.667 0 013.772-3.771" stroke="#5946D7" stroke-width="2" stroke-linecap="round" stroke-linejoin="round"></path></svg>