<svg width="27" height="16" viewBox="0 0 27 16" fill="none" xmlns="http://www.w3.org/2000/svg">
<path d="M18.7916 15.8159H10.8301V0.958702H18.7916V15.8159Z" fill="#B1B4B9"/>
<path d="M10.4337 8C10.4337 5.44828 11.6227 3.17528 13.4742 1.71047C12.1202 0.639327 10.4114 0 8.5543 0C4.15769 0 0.59375 3.58166 0.59375 8C0.59375 12.4184 4.15769 16 8.5543 16C10.4114 16 12.1202 15.3607 13.4742 14.2895C11.6227 12.8247 10.4337 10.5517 10.4337 8Z" fill="#F5F3F0"/>
<path d="M26.3478 8C26.3478 12.4184 22.7838 16 18.3872 16C16.5301 16 14.8213 15.3607 13.4668 14.2895C15.3189 12.8247 16.5078 10.5517 16.5078 8C16.5078 5.44828 15.3189 3.17528 13.4668 1.71047C14.8213 0.639327 16.5301 0 18.3872 0C22.7838 0 26.3478 3.58166 26.3478 8Z" fill="#7A7A7E"/>
</svg>
