<svg width="54" height="16" viewBox="0 0 54 16" fill="none" xmlns="http://www.w3.org/2000/svg">
<path fill-rule="evenodd" clip-rule="evenodd" d="M5.23306 0.828015C5.70938 0.825153 7.12499 0.697132 7.72461 2.72918C8.12852 4.09799 8.77192 6.34016 9.65485 9.45574H10.0143C10.9612 6.17109 11.6117 3.92891 11.9657 2.72918C12.5716 0.675965 14.0862 0.828056 14.6921 0.828056L19.3664 0.828061V15.4286H14.6022V6.82429H14.2827L11.6268 15.4286H8.04235L5.3865 6.81791H5.06702V15.4286H0.302734V0.828061L5.23306 0.828015ZM26.2079 0.828061V9.43885H26.5879L29.8185 2.35826C30.4456 0.949202 31.7823 0.828061 31.7823 0.828061H36.3926V15.4287H31.5289V6.81791H31.1488L27.9816 13.8985C27.3545 15.3012 25.9545 15.4287 25.9545 15.4287H21.3441V0.828061H26.2079ZM53.2041 7.76638C52.5256 9.69689 50.395 11.0794 48.0362 11.0794H42.9355V15.4287H38.3103V7.76638H53.2041Z" fill="white"/>
<path fill-rule="evenodd" clip-rule="evenodd" d="M48.2598 0.82682H38.0684C38.3109 4.07742 41.0988 6.86014 43.9848 6.86014H53.526C54.0766 4.15851 52.1812 0.82682 48.2598 0.82682Z" fill="white"/>
</svg>
