<svg width="47" height="16" viewBox="0 0 47 16" fill="none" xmlns="http://www.w3.org/2000/svg">
<path d="M20.2023 15.7304H16.4258L18.7878 1.09028H22.5642L20.2023 15.7304Z" fill="white"/>
<path d="M33.893 1.44794C33.1481 1.15172 31.9667 0.824654 30.5059 0.824654C26.7764 0.824654 24.1501 2.8181 24.134 5.66812C24.103 7.77085 26.0143 8.93876 27.4439 9.63991C28.9049 10.3564 29.4015 10.8239 29.4015 11.4626C29.3867 12.4433 28.2209 12.8955 27.1336 12.8955C25.6258 12.8955 24.818 12.6623 23.5902 12.1167L23.093 11.8828L22.5645 15.1692C23.4503 15.5736 25.0821 15.9326 26.7764 15.9483C30.739 15.9483 33.3188 13.9857 33.3494 10.9485C33.3644 9.28196 32.3552 8.00498 30.1793 6.96148C28.8585 6.29161 28.0495 5.83993 28.0495 5.15454C28.065 4.53146 28.7337 3.89327 30.2247 3.89327C31.4525 3.86201 32.3545 4.15782 33.0379 4.45383L33.3795 4.60929L33.893 1.44794Z" fill="white"/>
<path d="M38.9113 10.5439C39.2223 9.70285 40.4191 6.44773 40.4191 6.44773C40.4034 6.47899 40.7294 5.59115 40.9159 5.04611L41.1798 6.30759C41.1798 6.30759 41.895 9.81191 42.0503 10.5439C41.4602 10.5439 39.6572 10.5439 38.9113 10.5439ZM43.5729 1.09028H40.6518C39.751 1.09028 39.0666 1.35483 38.6779 2.30497L33.0684 15.7301H37.031C37.031 15.7301 37.6834 13.9232 37.8236 13.534C38.2583 13.534 42.1131 13.534 42.6724 13.534C42.7808 14.0481 43.123 15.7301 43.123 15.7301H46.6197L43.5729 1.09028Z" fill="white"/>
<path d="M13.2712 1.09028L9.57275 11.0734L9.16855 9.04871C8.48481 6.71249 6.34036 4.17422 3.94727 2.91212L7.33494 15.7148H11.3285L17.2646 1.09028H13.2712Z" fill="white"/>
<path d="M6.13824 1.09028H0.0621608L0 1.38609C4.73973 2.60099 7.87875 5.52946 9.16846 9.04934L7.84757 2.32092C7.63011 1.38588 6.96183 1.12112 6.13824 1.09028Z" fill="#B1B4B9"/>
</svg>
