<svg width="100%" height="230" viewBox="0 0 728 230" fill="none" xmlns="http://www.w3.org/2000/svg" xmlns:xlink="http://www.w3.org/1999/xlink">
<mask id="mask0_448_9875" style="mask-type:alpha" maskUnits="userSpaceOnUse" x="0" y="0" width="100%" height="230">
<rect width="100%" height="230" rx="30" fill="#4A4356"/>
</mask>
<g mask="url(#mask0_448_9875)">
<rect opacity="0.01" width="100%" height="230" fill="url(#pattern0)"/>
<g opacity="0.1">
<mask id="path-3-inside-1_448_9875" fill="white">
<ellipse cx="697.5" cy="198" rx="250.5" ry="251"/>
</mask>
<path d="M697 198C697 198.197 696.99 198.311 696.986 198.353C696.982 198.396 696.98 198.396 696.987 198.362C697.003 198.281 697.034 198.178 697.073 198.088C697.106 198.009 697.124 197.988 697.104 198.017C697.081 198.051 697.035 198.111 696.97 198.177C696.939 198.208 696.911 198.233 696.888 198.252C696.866 198.27 696.853 198.279 696.853 198.279C696.854 198.278 696.92 198.234 697.063 198.173C697.216 198.108 697.397 198.051 697.569 198.016C697.648 198 697.696 197.994 697.702 197.994C697.709 197.993 697.646 198 697.5 198V700C974.942 700 1199 474.775 1199 198H697ZM697.5 198C697.354 198 697.291 197.993 697.298 197.994C697.304 197.994 697.352 198 697.431 198.016C697.603 198.051 697.784 198.108 697.937 198.173C698.08 198.234 698.146 198.278 698.147 198.279C698.147 198.279 698.134 198.27 698.112 198.252C698.089 198.233 698.061 198.208 698.03 198.177C697.965 198.111 697.919 198.051 697.896 198.017C697.876 197.988 697.894 198.009 697.927 198.088C697.966 198.178 697.997 198.281 698.013 198.362C698.02 198.396 698.018 198.396 698.014 198.353C698.01 198.311 698 198.197 698 198H196C196 474.775 420.058 700 697.5 700V198ZM698 198C698 197.803 698.01 197.689 698.014 197.647C698.018 197.604 698.02 197.604 698.013 197.638C697.997 197.719 697.966 197.822 697.927 197.912C697.894 197.991 697.876 198.012 697.896 197.983C697.919 197.949 697.965 197.889 698.03 197.823C698.061 197.792 698.089 197.767 698.112 197.748C698.134 197.73 698.147 197.721 698.147 197.721C698.146 197.722 698.08 197.766 697.937 197.827C697.784 197.892 697.603 197.949 697.431 197.984C697.352 198 697.304 198.006 697.298 198.006C697.291 198.007 697.354 198 697.5 198V-304C420.058 -304 196 -78.7748 196 198H698ZM697.5 198C697.646 198 697.709 198.007 697.702 198.006C697.696 198.006 697.648 198 697.569 197.984C697.397 197.949 697.216 197.892 697.063 197.827C696.92 197.766 696.854 197.722 696.853 197.721C696.853 197.721 696.866 197.73 696.888 197.748C696.911 197.767 696.939 197.792 696.97 197.823C697.035 197.889 697.081 197.949 697.104 197.983C697.124 198.012 697.106 197.991 697.073 197.912C697.034 197.822 697.003 197.719 696.987 197.638C696.98 197.604 696.982 197.604 696.986 197.647C696.99 197.689 697 197.803 697 198H1199C1199 -78.7748 974.942 -304 697.5 -304V198Z" fill="#2E1066" mask="url(#path-3-inside-1_448_9875)"/>
<path d="M697 198C697 198.197 696.99 198.311 696.986 198.353C696.982 198.396 696.98 198.396 696.987 198.362C697.003 198.281 697.034 198.178 697.073 198.088C697.106 198.009 697.124 197.988 697.104 198.017C697.081 198.051 697.035 198.111 696.97 198.177C696.939 198.208 696.911 198.233 696.888 198.252C696.866 198.27 696.853 198.279 696.853 198.279C696.854 198.278 696.92 198.234 697.063 198.173C697.216 198.108 697.397 198.051 697.569 198.016C697.648 198 697.696 197.994 697.702 197.994C697.709 197.993 697.646 198 697.5 198V700C974.942 700 1199 474.775 1199 198H697ZM697.5 198C697.354 198 697.291 197.993 697.298 197.994C697.304 197.994 697.352 198 697.431 198.016C697.603 198.051 697.784 198.108 697.937 198.173C698.08 198.234 698.146 198.278 698.147 198.279C698.147 198.279 698.134 198.27 698.112 198.252C698.089 198.233 698.061 198.208 698.03 198.177C697.965 198.111 697.919 198.051 697.896 198.017C697.876 197.988 697.894 198.009 697.927 198.088C697.966 198.178 697.997 198.281 698.013 198.362C698.02 198.396 698.018 198.396 698.014 198.353C698.01 198.311 698 198.197 698 198H196C196 474.775 420.058 700 697.5 700V198ZM698 198C698 197.803 698.01 197.689 698.014 197.647C698.018 197.604 698.02 197.604 698.013 197.638C697.997 197.719 697.966 197.822 697.927 197.912C697.894 197.991 697.876 198.012 697.896 197.983C697.919 197.949 697.965 197.889 698.03 197.823C698.061 197.792 698.089 197.767 698.112 197.748C698.134 197.73 698.147 197.721 698.147 197.721C698.146 197.722 698.08 197.766 697.937 197.827C697.784 197.892 697.603 197.949 697.431 197.984C697.352 198 697.304 198.006 697.298 198.006C697.291 198.007 697.354 198 697.5 198V-304C420.058 -304 196 -78.7748 196 198H698ZM697.5 198C697.646 198 697.709 198.007 697.702 198.006C697.696 198.006 697.648 198 697.569 197.984C697.397 197.949 697.216 197.892 697.063 197.827C696.92 197.766 696.854 197.722 696.853 197.721C696.853 197.721 696.866 197.73 696.888 197.748C696.911 197.767 696.939 197.792 696.97 197.823C697.035 197.889 697.081 197.949 697.104 197.983C697.124 198.012 697.106 197.991 697.073 197.912C697.034 197.822 697.003 197.719 696.987 197.638C696.98 197.604 696.982 197.604 696.986 197.647C696.99 197.689 697 197.803 697 198H1199C1199 -78.7748 974.942 -304 697.5 -304V198Z" fill="#410F9E" mask="url(#path-3-inside-1_448_9875)"/>
<path d="M697 198C697 198.197 696.99 198.311 696.986 198.353C696.982 198.396 696.98 198.396 696.987 198.362C697.003 198.281 697.034 198.178 697.073 198.088C697.106 198.009 697.124 197.988 697.104 198.017C697.081 198.051 697.035 198.111 696.97 198.177C696.939 198.208 696.911 198.233 696.888 198.252C696.866 198.27 696.853 198.279 696.853 198.279C696.854 198.278 696.92 198.234 697.063 198.173C697.216 198.108 697.397 198.051 697.569 198.016C697.648 198 697.696 197.994 697.702 197.994C697.709 197.993 697.646 198 697.5 198V700C974.942 700 1199 474.775 1199 198H697ZM697.5 198C697.354 198 697.291 197.993 697.298 197.994C697.304 197.994 697.352 198 697.431 198.016C697.603 198.051 697.784 198.108 697.937 198.173C698.08 198.234 698.146 198.278 698.147 198.279C698.147 198.279 698.134 198.27 698.112 198.252C698.089 198.233 698.061 198.208 698.03 198.177C697.965 198.111 697.919 198.051 697.896 198.017C697.876 197.988 697.894 198.009 697.927 198.088C697.966 198.178 697.997 198.281 698.013 198.362C698.02 198.396 698.018 198.396 698.014 198.353C698.01 198.311 698 198.197 698 198H196C196 474.775 420.058 700 697.5 700V198ZM698 198C698 197.803 698.01 197.689 698.014 197.647C698.018 197.604 698.02 197.604 698.013 197.638C697.997 197.719 697.966 197.822 697.927 197.912C697.894 197.991 697.876 198.012 697.896 197.983C697.919 197.949 697.965 197.889 698.03 197.823C698.061 197.792 698.089 197.767 698.112 197.748C698.134 197.73 698.147 197.721 698.147 197.721C698.146 197.722 698.08 197.766 697.937 197.827C697.784 197.892 697.603 197.949 697.431 197.984C697.352 198 697.304 198.006 697.298 198.006C697.291 198.007 697.354 198 697.5 198V-304C420.058 -304 196 -78.7748 196 198H698ZM697.5 198C697.646 198 697.709 198.007 697.702 198.006C697.696 198.006 697.648 198 697.569 197.984C697.397 197.949 697.216 197.892 697.063 197.827C696.92 197.766 696.854 197.722 696.853 197.721C696.853 197.721 696.866 197.73 696.888 197.748C696.911 197.767 696.939 197.792 696.97 197.823C697.035 197.889 697.081 197.949 697.104 197.983C697.124 198.012 697.106 197.991 697.073 197.912C697.034 197.822 697.003 197.719 696.987 197.638C696.98 197.604 696.982 197.604 696.986 197.647C696.99 197.689 697 197.803 697 198H1199C1199 -78.7748 974.942 -304 697.5 -304V198Z" fill="#453888" mask="url(#path-3-inside-1_448_9875)"/>
<path d="M697 198C697 198.197 696.99 198.311 696.986 198.353C696.982 198.396 696.98 198.396 696.987 198.362C697.003 198.281 697.034 198.178 697.073 198.088C697.106 198.009 697.124 197.988 697.104 198.017C697.081 198.051 697.035 198.111 696.97 198.177C696.939 198.208 696.911 198.233 696.888 198.252C696.866 198.27 696.853 198.279 696.853 198.279C696.854 198.278 696.92 198.234 697.063 198.173C697.216 198.108 697.397 198.051 697.569 198.016C697.648 198 697.696 197.994 697.702 197.994C697.709 197.993 697.646 198 697.5 198V700C974.942 700 1199 474.775 1199 198H697ZM697.5 198C697.354 198 697.291 197.993 697.298 197.994C697.304 197.994 697.352 198 697.431 198.016C697.603 198.051 697.784 198.108 697.937 198.173C698.08 198.234 698.146 198.278 698.147 198.279C698.147 198.279 698.134 198.27 698.112 198.252C698.089 198.233 698.061 198.208 698.03 198.177C697.965 198.111 697.919 198.051 697.896 198.017C697.876 197.988 697.894 198.009 697.927 198.088C697.966 198.178 697.997 198.281 698.013 198.362C698.02 198.396 698.018 198.396 698.014 198.353C698.01 198.311 698 198.197 698 198H196C196 474.775 420.058 700 697.5 700V198ZM698 198C698 197.803 698.01 197.689 698.014 197.647C698.018 197.604 698.02 197.604 698.013 197.638C697.997 197.719 697.966 197.822 697.927 197.912C697.894 197.991 697.876 198.012 697.896 197.983C697.919 197.949 697.965 197.889 698.03 197.823C698.061 197.792 698.089 197.767 698.112 197.748C698.134 197.73 698.147 197.721 698.147 197.721C698.146 197.722 698.08 197.766 697.937 197.827C697.784 197.892 697.603 197.949 697.431 197.984C697.352 198 697.304 198.006 697.298 198.006C697.291 198.007 697.354 198 697.5 198V-304C420.058 -304 196 -78.7748 196 198H698ZM697.5 198C697.646 198 697.709 198.007 697.702 198.006C697.696 198.006 697.648 198 697.569 197.984C697.397 197.949 697.216 197.892 697.063 197.827C696.92 197.766 696.854 197.722 696.853 197.721C696.853 197.721 696.866 197.73 696.888 197.748C696.911 197.767 696.939 197.792 696.97 197.823C697.035 197.889 697.081 197.949 697.104 197.983C697.124 198.012 697.106 197.991 697.073 197.912C697.034 197.822 697.003 197.719 696.987 197.638C696.98 197.604 696.982 197.604 696.986 197.647C696.99 197.689 697 197.803 697 198H1199C1199 -78.7748 974.942 -304 697.5 -304V198Z" fill="#5946D7" mask="url(#path-3-inside-1_448_9875)"/>
</g>
<circle opacity="0.1" cy="-11" r="201" stroke="#FB6019" stroke-width="80"/>
<path opacity="0.1" d="M322 -11C322 35.9519 311.732 82.3357 291.916 124.901C272.1 167.466 243.215 205.183 207.285 235.408" stroke="#FB6019" stroke-width="50"/>
<path opacity="0.1" d="M174.725 259.472C135.287 284.949 90.7539 301.494 44.2474 307.945C-2.25906 314.397 -49.6139 310.601 -94.4983 296.821" stroke="#FB6019" stroke-width="50"/>
<g opacity="0.2" filter="url(#filter0_f_448_9875)">
<ellipse cx="443.5" cy="224" rx="203.5" ry="143" fill="white"/>
</g>
</g>
<defs>
<pattern id="pattern0" patternContentUnits="objectBoundingBox" width="0.549451" height="1.73913">
<use xlink:href="#image0_448_9875" transform="scale(0.00137363 0.00434783)"/>
</pattern>
<filter id="filter0_f_448_9875" x="76" y="-83" width="735" height="614" filterUnits="userSpaceOnUse" color-interpolation-filters="sRGB">
<feFlood flood-opacity="0" result="BackgroundImageFix"/>
<feBlend mode="normal" in="SourceGraphic" in2="BackgroundImageFix" result="shape"/>
<feGaussianBlur stdDeviation="82" result="effect1_foregroundBlur_448_9875"/>
</filter>
</defs>
</svg>
