<svg width="12" height="12" viewBox="0 0 12 12" fill="none" xmlns="http://www.w3.org/2000/svg">
<g clip-path="url(#clip0_448_682)">
<path d="M6.71215 0.589728L8.21558 3.76116L11.2944 4.08773C11.4503 4.10285 11.5981 4.16407 11.719 4.26358C11.8399 4.36308 11.9284 4.49636 11.9732 4.64639C12.018 4.79642 12.017 4.9564 11.9705 5.1059C11.9239 5.2554 11.8339 5.38764 11.7119 5.48573L9.25701 7.5043L10.0164 10.8977C10.0504 11.0486 10.0392 11.206 9.98425 11.3506C9.92931 11.4951 9.83307 11.6202 9.70751 11.7104C9.58195 11.8006 9.43262 11.8519 9.27813 11.8578C9.12364 11.8637 8.97083 11.824 8.83873 11.7437L5.99987 10.0166L3.15844 11.7429C3.02627 11.823 2.87346 11.8626 2.719 11.8566C2.56454 11.8506 2.41524 11.7994 2.28967 11.7092C2.16409 11.6191 2.06778 11.494 2.0127 11.3496C1.95762 11.2052 1.9462 11.0477 1.97987 10.8969L2.74273 7.5043L0.287869 5.48573C0.166687 5.38737 0.0774569 5.25522 0.0315014 5.10606C-0.014454 4.9569 -0.015063 4.79746 0.0297519 4.64795C0.0745667 4.49845 0.162785 4.36562 0.283213 4.26634C0.40364 4.16705 0.550847 4.10578 0.706155 4.0903L3.78416 3.76373L5.28758 0.589728C5.35158 0.455008 5.45248 0.341199 5.57855 0.261512C5.70463 0.181825 5.85072 0.139526 5.99987 0.139526C6.14902 0.139526 6.29511 0.181825 6.42119 0.261512C6.54726 0.341199 6.64816 0.455008 6.71215 0.589728Z" fill="#C5C3C8"/>
<mask id="mask0_448_682" style="mask-type:alpha" maskUnits="userSpaceOnUse" x="-1" y="0" width="14" height="12">
<path d="M6.71215 0.589728L8.21558 3.76116L11.2944 4.08773C11.4503 4.10285 11.5981 4.16407 11.719 4.26358C11.8399 4.36308 11.9284 4.49636 11.9732 4.64639C12.018 4.79642 12.017 4.9564 11.9705 5.1059C11.9239 5.2554 11.8339 5.38764 11.7119 5.48573L9.25701 7.5043L10.0164 10.8977C10.0504 11.0486 10.0392 11.206 9.98425 11.3506C9.92931 11.4951 9.83307 11.6202 9.70751 11.7104C9.58195 11.8006 9.43262 11.8519 9.27813 11.8578C9.12364 11.8637 8.97083 11.824 8.83873 11.7437L5.99987 10.0166L3.15844 11.7429C3.02627 11.823 2.87346 11.8626 2.719 11.8566C2.56454 11.8506 2.41524 11.7994 2.28967 11.7092C2.16409 11.6191 2.06778 11.494 2.0127 11.3496C1.95762 11.2052 1.9462 11.0477 1.97987 10.8969L2.74273 7.5043L0.287869 5.48573C0.166687 5.38737 0.0774569 5.25522 0.0315014 5.10606C-0.014454 4.9569 -0.015063 4.79746 0.0297519 4.64795C0.0745667 4.49845 0.162785 4.36562 0.283213 4.26634C0.40364 4.16705 0.550847 4.10578 0.706155 4.0903L3.78416 3.76373L5.28758 0.589728C5.35158 0.455008 5.45248 0.341199 5.57855 0.261512C5.70463 0.181825 5.85072 0.139526 5.99987 0.139526C6.14902 0.139526 6.29511 0.181825 6.42119 0.261512C6.54726 0.341199 6.64816 0.455008 6.71215 0.589728Z" fill="#FF9431"/>
</mask>
<g mask="url(#mask0_448_682)">
<rect x="6" width="6" height="12" fill="#C5C3C8"/>
</g>
</g>
<defs>
<clipPath id="clip0_448_682">
<rect width="12" height="12" fill="white"/>
</clipPath>
</defs>
</svg>
